<?xml version="1.0" standalone="no"?>
<!DOCTYPE svg PUBLIC "-//W3C//DTD SVG 20010904//EN"
 "http://www.w3.org/TR/2001/REC-SVG-20010904/DTD/svg10.dtd">
<svg version="1.0" xmlns="http://www.w3.org/2000/svg"
 width="700.000000pt" height="700.000000pt" viewBox="0 0 700.000000 700.000000"
 preserveAspectRatio="xMidYMid meet">
<metadata>
Created by potrace 1.11, written by Peter Selinger 2001-2013
</metadata>
<g transform="translate(0.000000,700.000000) scale(0.100000,-0.100000)"
fill="#000000" stroke="none">
<path d="M3278 6995 c-2 -1 -41 -5 -88 -9 -47 -4 -96 -8 -110 -10 -14 -2 -46
-7 -71 -10 -164 -23 -425 -82 -549 -124 l-55 -19 -1 -1052 c-1 -579 -5 -1055
-9 -1059 -3 -4 -496 -7 -1095 -7 -598 0 -1090 -2 -1093 -5 -7 -8 -81 -242 -93
-295 -1 -5 -9 -37 -17 -70 -36 -138 -71 -343 -87 -510 -8 -83 -5 -577 4 -630
3 -16 10 -70 16 -120 5 -49 12 -101 15 -115 2 -14 11 -65 20 -115 8 -49 17
-97 20 -105 2 -8 6 -26 9 -40 8 -46 55 -214 86 -308 73 -221 188 -472 304
-666 36 -60 66 -113 66 -117 0 -4 4 -9 8 -11 4 -2 18 -19 30 -39 18 -29 132
-188 169 -234 25 -31 111 -133 128 -151 152 -162 268 -274 390 -375 109 -89
299 -229 313 -229 6 0 12 -4 14 -8 12 -30 411 -238 597 -311 212 -83 473 -159
651 -190 36 -6 79 -13 95 -16 32 -6 151 -21 226 -29 25 -3 105 -8 176 -12
l130 -6 0 576 c-1 317 -3 576 -6 577 -3 0 -15 2 -26 4 -23 3 -188 32 -225 40
-14 3 -54 10 -90 16 -363 58 -780 253 -1090 509 -111 91 -251 229 -325 320
-20 25 -43 53 -51 63 -210 256 -381 662 -469 1112 -10 55 -18 202 -11 228 3
15 14 31 24 36 27 14 161 30 317 37 148 7 809 12 836 6 11 -2 24 -39 44 -125
16 -67 30 -131 32 -141 2 -11 19 -66 38 -122 95 -286 262 -484 510 -607 86
-43 215 -90 280 -102 17 -3 53 -10 80 -15 28 -5 67 -14 88 -19 20 -5 38 -8 38
-7 4 3 7 271 13 1196 4 553 9 1147 11 1320 2 173 5 447 6 608 3 315 -1 296 54
294 45 -1 223 -13 270 -18 127 -13 397 -79 510 -124 11 -4 47 -18 80 -30 33
-12 74 -29 92 -36 17 -8 37 -14 45 -14 8 0 23 -6 34 -14 19 -14 19 -36 19
-1028 l0 -1013 1198 0 1197 -1 -5 126 c-5 123 -11 206 -20 265 -3 17 -7 50
-10 75 -3 25 -7 52 -10 60 -2 8 -7 35 -10 60 -11 82 -54 263 -96 400 -133 443
-370 886 -649 1214 -158 187 -397 421 -504 496 -12 8 -30 22 -40 32 -30 28
-221 160 -327 226 -202 128 -492 262 -729 340 -137 45 -330 97 -400 107 -24 4
-47 8 -50 10 -12 7 -253 38 -400 51 -55 5 -467 13 -472 9z"/>
<path d="M5637 2595 c-175 -349 -287 -509 -516 -735 -218 -216 -393 -335 -756
-515 -99 -49 -182 -90 -185 -92 -7 -6 -6 -1164 2 -1176 14 -23 469 110 685
201 242 102 503 254 728 422 195 146 428 362 550 510 21 25 41 47 44 50 10 7
149 193 202 270 150 217 298 504 391 754 30 84 105 321 112 359 2 12 9 41 14
64 8 33 6 47 -5 63 -34 48 -88 52 -669 54 l-481 2 -116 -231z"/>
</g>
</svg>
