<?xml version="1.0" encoding="UTF-8" standalone="no"?>
<svg
   xmlns:dc="http://purl.org/dc/elements/1.1/"
   xmlns:cc="http://creativecommons.org/ns#"
   xmlns:rdf="http://www.w3.org/1999/02/22-rdf-syntax-ns#"
   xmlns:svg="http://www.w3.org/2000/svg"
   xmlns="http://www.w3.org/2000/svg"
   xmlns:sodipodi="http://sodipodi.sourceforge.net/DTD/sodipodi-0.dtd"
   xmlns:inkscape="http://www.inkscape.org/namespaces/inkscape"
   width="71.761803mm"
   height="45.428947mm"
   viewBox="0 0 71.761803 45.428947"
   version="1.1"
   id="svg1553"
   inkscape:version="1.0.1 (3bc2e813f5, 2020-09-07)"
   sodipodi:docname="iconoTopOffice.svg">
  <defs
     id="defs1547" />
  <sodipodi:namedview
     id="base"
     pagecolor="#ffffff"
     bordercolor="#666666"
     borderopacity="1.0"
     inkscape:pageopacity="0.0"
     inkscape:pageshadow="2"
     inkscape:zoom="0.8744954"
     inkscape:cx="-28.735097"
     inkscape:cy="41.372889"
     inkscape:document-units="mm"
     inkscape:current-layer="layer1"
     inkscape:document-rotation="0"
     showgrid="false"
     inkscape:window-width="1366"
     inkscape:window-height="715"
     inkscape:window-x="-8"
     inkscape:window-y="248"
     inkscape:window-maximized="1" />
  <metadata
     id="metadata1550">
    <rdf:RDF>
      <cc:Work
         rdf:about="">
        <dc:format>image/svg+xml</dc:format>
        <dc:type
           rdf:resource="http://purl.org/dc/dcmitype/StillImage" />
        <dc:title />
      </cc:Work>
    </rdf:RDF>
  </metadata>
  <g
     inkscape:label="Capa 1"
     inkscape:groupmode="layer"
     id="layer1"
     transform="translate(-120.90223,-137.22009)">
    <rect
       style="fill:#d40000;fill-opacity:1;stroke:none;stroke-width:0.560691;stroke-dashoffset:0.937323"
       id="rect1505"
       width="71.761803"
       height="45.428947"
       x="120.90223"
       y="137.22009"
       rx="0"
       ry="0" />
    <path
       id="path1507"
       style="fill:#ffffff;fill-opacity:1;stroke-width:0.0908281"
       d="m 156.80979,146.36242 c -0.21434,0 -15.71296,15.97206 -15.74428,16.22523 -0.0283,0.22831 1.51743,1.96082 1.86816,2.09397 0.074,0.0281 0.2039,0.0544 0.28851,0.0583 0.0895,0.005 2.84949,-2.75598 6.59618,-6.59666 3.54328,-3.63218 6.55351,-6.67736 6.68925,-6.76706 0.36363,-0.24027 0.12351,-0.46592 7.15233,6.72199 5.85544,5.98798 6.43722,6.55717 6.70345,6.55717 0.28519,0 1.85165,-1.38434 2.10636,-1.86147 0.14618,-0.27387 0.0892,-0.33573 -7.39897,-8.01469 -4.00637,-4.10846 -7.47785,-7.68297 -7.71429,-7.94339 -0.23643,-0.26044 -0.4824,-0.47345 -0.5467,-0.47345 z m -0.0542,11.16884 c -0.17219,0 -10.32195,10.44919 -10.32195,10.62645 0,0.16409 1.60756,1.89225 1.95035,2.09668 0.0873,0.052 0.22118,0.0961 0.29746,0.0975 0.0763,0.002 1.83247,-1.73832 3.90263,-3.8664 3.93119,-4.04115 3.97604,-4.08317 4.29403,-4.00141 0.1083,0.0278 1.91034,1.81018 4.00447,3.96066 2.81689,2.89265 3.86129,3.91002 4.01428,3.91002 0.27607,0 2.17805,-1.90194 2.17805,-2.178 0,-0.19535 -10.12996,-10.64548 -10.31932,-10.64548 z m -0.0217,11.09811 c -0.21846,0.0221 -0.6164,0.39925 -2.42502,2.2586 -1.96893,2.02418 -2.32826,2.45196 -2.18382,2.59994 0.027,0.0277 8.80048,0.0238 9.31847,-0.005 0.36613,-0.0198 -4.24134,-4.8113 -4.66791,-4.85441 -0.0133,-0.002 -0.0271,-0.002 -0.0418,0 z" />
  </g>
</svg>
