<?xml version="1.0" encoding="UTF-8" standalone="no"?>
<svg
   xmlns:dc="http://purl.org/dc/elements/1.1/"
   xmlns:cc="http://creativecommons.org/ns#"
   xmlns:rdf="http://www.w3.org/1999/02/22-rdf-syntax-ns#"
   xmlns:svg="http://www.w3.org/2000/svg"
   xmlns="http://www.w3.org/2000/svg"
   xmlns:sodipodi="http://sodipodi.sourceforge.net/DTD/sodipodi-0.dtd"
   xmlns:inkscape="http://www.inkscape.org/namespaces/inkscape"
   width="92.679764mm"
   height="78.128632mm"
   viewBox="0 0 92.679764 78.128632"
   version="1.1"
   id="svg28"
   inkscape:version="1.0.1 (3bc2e813f5, 2020-09-07)"
   sodipodi:docname="iconoTopOffice.svg">
  <defs
     id="defs22" />
  <sodipodi:namedview
     id="base"
     pagecolor="#ffffff"
     bordercolor="#666666"
     borderopacity="1.0"
     inkscape:pageopacity="0.0"
     inkscape:pageshadow="2"
     inkscape:zoom="0.35"
     inkscape:cx="20.857137"
     inkscape:cy="-63.783924"
     inkscape:document-units="mm"
     inkscape:current-layer="layer1"
     inkscape:document-rotation="0"
     showgrid="false"
     inkscape:window-width="1366"
     inkscape:window-height="715"
     inkscape:window-x="-8"
     inkscape:window-y="-8"
     inkscape:window-maximized="1" />
  <metadata
     id="metadata25">
    <rdf:RDF>
      <cc:Work
         rdf:about="">
        <dc:format>image/svg+xml</dc:format>
        <dc:type
           rdf:resource="http://purl.org/dc/dcmitype/StillImage" />
        <dc:title></dc:title>
      </cc:Work>
    </rdf:RDF>
  </metadata>
  <g
     inkscape:label="Capa 1"
     inkscape:groupmode="layer"
     id="layer1"
     transform="translate(-100.31488,-165.04283)">
    <path
       id="path849"
       style="fill:#d40000;fill-opacity:1;stroke-width:0.264583"
       d="m 146.73333,165.04283 c -0.63192,0 -46.32502,45.9718 -46.41732,46.70051 -0.0833,0.65712 4.47366,5.64374 5.50767,6.02701 0.21829,0.0809 0.60115,0.15645 0.8506,0.16796 0.26378,0.0121 8.40088,-7.93247 19.44687,-18.98696 10.44632,-10.45436 19.32109,-19.2192 19.72128,-19.47737 1.07206,-0.69156 0.36416,-1.34104 21.08657,19.34766 17.26304,17.23499 18.97823,18.87328 19.76313,18.87328 0.84079,0 5.45904,-3.9845 6.20996,-5.35782 0.431,-0.78827 0.26303,-0.96628 -21.81366,-23.06837 -11.81162,-11.82523 -22.04624,-22.1136 -22.74331,-22.86319 -0.69706,-0.74959 -1.42224,-1.36271 -1.61179,-1.36271 z m -0.15968,32.14688 c -0.50765,0 -30.43122,30.07551 -30.43122,30.58573 0,0.47231 4.73941,5.44636 5.75004,6.03477 0.25729,0.14979 0.65208,0.2766 0.87695,0.28059 0.22486,0.004 5.40252,-5.00335 11.50576,-11.12851 11.58995,-11.63148 11.72218,-11.75243 12.65969,-11.51713 0.31928,0.0801 5.63205,5.21018 11.806,11.39983 8.30474,8.32584 11.38386,11.25408 11.83493,11.25408 0.81388,0 6.42132,-5.4743 6.42132,-6.26887 0,-0.56225 -29.8652,-30.64049 -30.42347,-30.64049 z m -0.0641,31.94327 c -0.64405,0.0636 -1.81727,1.14918 -7.14943,6.50088 -5.80484,5.82611 -6.86419,7.05735 -6.43837,7.48328 0.0796,0.0796 25.94562,0.0684 27.47275,-0.0119 1.07945,-0.0568 -12.50434,-13.84816 -13.76196,-13.97227 -0.0393,-0.004 -0.08,-0.004 -0.12299,0 z" />
  </g>
</svg>
