<?xml version="1.0" encoding="UTF-8" standalone="no"?>
<svg
   xmlns:dc="http://purl.org/dc/elements/1.1/"
   xmlns:cc="http://creativecommons.org/ns#"
   xmlns:rdf="http://www.w3.org/1999/02/22-rdf-syntax-ns#"
   xmlns:svg="http://www.w3.org/2000/svg"
   xmlns="http://www.w3.org/2000/svg"
   xmlns:sodipodi="http://sodipodi.sourceforge.net/DTD/sodipodi-0.dtd"
   xmlns:inkscape="http://www.inkscape.org/namespaces/inkscape"
   width="45.243752mm"
   height="45.243752mm"
   viewBox="0 0 45.243752 45.243752"
   version="1.1"
   id="svg8"
   inkscape:version="1.0.1 (3bc2e813f5, 2020-09-07)"
   sodipodi:docname="iconoJellyfish.svg">
  <defs
     id="defs2" />
  <sodipodi:namedview
     id="base"
     pagecolor="#ffffff"
     bordercolor="#666666"
     borderopacity="1.0"
     inkscape:pageopacity="0.0"
     inkscape:pageshadow="2"
     inkscape:zoom="2.6866197"
     inkscape:cx="49.271084"
     inkscape:cy="77.845531"
     inkscape:document-units="mm"
     inkscape:current-layer="layer1"
     inkscape:document-rotation="0"
     showgrid="false"
     inkscape:window-width="1366"
     inkscape:window-height="715"
     inkscape:window-x="-8"
     inkscape:window-y="248"
     inkscape:window-maximized="1" />
  <metadata
     id="metadata5">
    <rdf:RDF>
      <cc:Work
         rdf:about="">
        <dc:format>image/svg+xml</dc:format>
        <dc:type
           rdf:resource="http://purl.org/dc/dcmitype/StillImage" />
        <dc:title />
      </cc:Work>
    </rdf:RDF>
  </metadata>
  <g
     inkscape:label="Capa 1"
     inkscape:groupmode="layer"
     id="layer1"
     transform="translate(-30.726345,-77.997635)">
    <rect
       style="fill:#ffffff;stroke-width:0.943002;stroke-dashoffset:0.937323"
       id="rect12"
       width="45.243752"
       height="45.243752"
       x="30.726345"
       y="77.997635" />
    <g
       id="g3180"
       transform="matrix(0.03677727,0,0,0.03677727,68.534277,87.185881)"
       style="stroke-width:7.1942">
      <g
         transform="translate(-295.95376,50.73493)"
         id="g3158"
         style="stroke-width:7.1942">
        <path
           inkscape:connector-curvature="0"
           style="fill:#39b5b3;fill-opacity:1;stroke:none;stroke-width:7.1942"
           d="m 144.03125,452.78125 c -16.90744,0 -30.625,14.41402 -30.625,32.21875 0,17.80473 13.71756,32.25 30.625,32.25 16.90744,0 30.625,-14.44527 30.625,-32.25 0,-17.80473 -13.71756,-32.21875 -30.625,-32.21875 z m -1.1875,9.96875 c 12.06473,0 21.84375,10.40296 21.84375,23.25 0,12.84704 -9.77902,23.28125 -21.84375,23.28125 C 130.77902,509.28125 121,498.84704 121,486 c 0,-12.84704 9.77902,-23.25 21.84375,-23.25 z"
           transform="translate(33.299365,37.066035)"
           id="path3886" />
        <path
           style="fill:#2caeac;fill-opacity:1;stroke:none;stroke-width:7.1942"
           d="m 173.20977,514.73149 c -3.61977,2.16694 -9.05855,9.73868 -11.01241,4.48692 -0.58482,-1.75942 -0.1328,-5.56244 -0.1056,-6.04719 1.07938,-6.52282 11.08607,-8.98028 16.38564,-8.11943 10.22702,5.99392 -3.19585,8.49669 -5.26763,9.6797 z"
           id="path3892"
           inkscape:connector-curvature="0"
           sodipodi:nodetypes="ccccc" />
        <path
           inkscape:connector-curvature="0"
           style="fill:#39b5b3;fill-opacity:1;stroke:none;stroke-width:7.1942"
           d="m 195.28125,510.0625 c -13.78038,0 -24.9375,11.67713 -24.9375,26.0625 0,14.38537 11.15712,26.03125 24.9375,26.03125 13.78038,0 24.96875,-11.64588 24.96875,-26.03125 0,-14.38537 -11.18837,-26.0625 -24.96875,-26.0625 z m -0.96875,8.0625 c 9.83333,0 17.8125,8.4327 17.8125,18.8125 0,10.3798 -7.97917,18.78125 -17.8125,18.78125 -9.83333,0 -17.8125,-8.40145 -17.8125,-18.78125 0,-10.3798 7.97917,-18.8125 17.8125,-18.8125 z"
           transform="translate(33.299365,37.066035)"
           id="path3894" />
        <path
           sodipodi:nodetypes="ccccc"
           inkscape:connector-curvature="0"
           id="path3898"
           d="m 225.22139,567.25604 c -2.95028,1.75079 -7.38315,7.86839 -8.97564,3.62523 -0.47665,-1.42154 -0.10824,-4.49419 -0.086,-4.88585 0.87975,-5.27012 9.03568,-7.25563 13.3551,-6.56011 8.33551,4.84281 -2.60478,6.86493 -4.29339,7.82073 z"
           style="fill:#2caeac;fill-opacity:1;stroke:none;stroke-width:7.1942" />
        <path
           inkscape:connector-curvature="0"
           style="fill:#39b5b3;fill-opacity:1;stroke:none;stroke-width:7.1942"
           d="m 143.3125,546.9375 c -13.78038,0 -24.96875,11.64588 -24.96875,26.03125 0,14.38537 11.18837,26.0625 24.96875,26.0625 13.78038,0 24.9375,-11.67713 24.9375,-26.0625 0,-14.38537 -11.15712,-26.03125 -24.9375,-26.03125 z M 142.34375,555 c 9.83333,0 17.78125,8.40145 17.78125,18.78125 0,10.3798 -7.94792,18.8125 -17.78125,18.8125 -9.83333,0 -17.8125,-8.4327 -17.8125,-18.8125 0,-10.3798 7.97917,-18.78125 17.8125,-18.78125 z"
           transform="translate(33.299365,37.066035)"
           id="path3900" />
        <path
           style="fill:#2caeac;fill-opacity:1;stroke:none;stroke-width:7.1942"
           d="m 173.24674,604.11579 c -2.95029,1.75079 -7.38316,7.86839 -8.97564,3.62522 -0.47666,-1.42153 -0.10824,-4.49418 -0.086,-4.88585 0.87975,-5.27011 9.03568,-7.25563 13.35509,-6.5601 8.33552,4.84281 -2.60478,6.86492 -4.29338,7.82073 z"
           id="path3904"
           inkscape:connector-curvature="0"
           sodipodi:nodetypes="ccccc" />
      </g>
      <g
         inkscape:export-ydpi="90"
         inkscape:export-xdpi="90"
         transform="matrix(1.0988357,0,0,1.0897742,312.7139,259.84683)"
         id="g3959"
         style="stroke-width:7.1942">
        <path
           style="fill:#72bdb6;fill-opacity:1;stroke:none;stroke-width:7.1942"
           d="m -778.61887,319.09718 c 0,0 7.1346,4.27325 26.68869,4.53749 -0.32299,8.6636 -1.45379,17.26263 -5.69675,19.79011 -6.90066,4.11063 -17.78818,1.357 -23.21535,-5.57952 0,0 -5.43968,-10.82075 2.22341,-18.74808 z"
           id="path3844"
           inkscape:connector-curvature="0"
           sodipodi:nodetypes="ccscc" />
        <path
           style="fill:#72bdb6;fill-opacity:1;stroke:none;stroke-width:7.1942"
           d="m -738.56317,320.14088 c 0,0 11.36251,-5.81338 17.44013,-12.68373 0,0 12.94798,4.49215 5.81338,17.17588 0,0 -5.02064,7.66309 -15.85467,4.49216 0,0 -7.1346,-2.64244 -7.39884,-8.98431 z"
           id="path3846"
           inkscape:connector-curvature="0" />
        <path
           style="fill:#72bdb6;fill-opacity:1;stroke:none;stroke-width:7.1942"
           d="m -704.83606,277.93917 c 0,0 -7.81787,17.93656 -9.93183,20.05051 19.149,7.21698 22.61239,-16.19727 9.93183,-20.05051 z"
           id="path3848"
           inkscape:connector-curvature="0"
           sodipodi:nodetypes="ccc" />
        <path
           style="fill:#72bdb6;fill-opacity:1;stroke:none;stroke-width:7.1942"
           d="m -696.00654,235.9243 c 0,0 -1.50807,20.11464 -2.82929,22.75708 5.29351,0.17906 10.80046,-0.9001 13.71175,-3.11647 2.71452,-2.06658 3.97797,-5.55026 4.03672,-8.08813 0.1364,-5.89157 -8.34586,-11.41421 -14.91918,-11.55248 z"
           id="path3850"
           inkscape:connector-curvature="0"
           sodipodi:nodetypes="ccssc" />
        <path
           style="fill:#dc7ca2;fill-opacity:1;stroke:none;stroke-width:7.1942"
           d="m -714.70378,7.2113626 c 0,0 15.77727,73.5240664 15.77727,96.7775774 0,0 7.1346,59.45499 4.49216,99.3559 0,0 0.26425,52.58464 -5.54913,65.26838 -3.05028,6.74098 -3.83195,11.79143 -6.93741,18.32657 -4.75873,10.01424 -11.85991,18.64286 -18.91577,25.05658 -15.25659,13.86814 -36.50365,16.79123 -54.74137,6.82329 -16.00423,-14.09536 -11.8425,-32.2457 -2.27527,-39.65749 9.58409,-7.42485 24.58714,-4.08633 23.81187,10.05057 -0.32619,3.71556 -5.64948,3.91103 -3.83222,8.20312 3.5657,3.74896 14.40274,0.60088 18.49642,0.25612 16.03903,-1.35076 27.15726,-24.13415 30.61738,-34.2678 8.17213,-24.6259 6.38829,-57.49971 6.01895,-92.55762 -0.32823,-31.15517 -3.98029,-63.28539 -7.48312,-92.73233 -1.61685,-13.592215 -4.55027,-25.698017 -6.68805,-37.231415 -1.74724,-9.426397 -2.81031,-19.942439 -6.19078,-26.536853 0,0 6.79296,0.528489 13.39907,-7.1345994 z"
           id="path3842"
           inkscape:connector-curvature="0"
           sodipodi:nodetypes="ccccsscsccscssscc" />
        <path
           style="fill:#b3dcd4;fill-opacity:1;stroke:none;stroke-width:7.1942"
           d="m -808.86943,-45.749539 c 0,0 -18.49805,11.024093 -10.2767,31.577486 0,0 14.57423,20.1796943 34.75392,-6.726565 0,0 -5.60547,44.470068 27.27996,26.1588632 0,0 8.22136,-6.7265649 13.82683,-14.947922 0,0 -0.86485,21.4050798 11.22014,24.2512948 16.9385,2.895556 18.2875,-13.8558475 25.77596,-16.7773338 0,0 2.24219,30.2695418 27.27996,22.7955808 0,0 13.45313,-4.110678 17.93751,-23.1692789 2.73245,3.47593491 3.02474,7.5289137 4.95123,10.9478792 3.07388,5.4552207 7.41979,9.8740157 10.67126,12.1203337 8.18714,5.656177 16.9329,2.597148 21.14269,-5.052129 3.27712,-5.9545776 3.443,-12.3805554 2.84681,-24.3689507 0,0 8.96876,50.4492367 39.612,27.6536557 0,0 8.96875,-8.221357 8.59505,-21.3007889 0,0 17.199,11.7453858 31.06955,5.3458051 10.17484,-6.3984666 9.14325,-15.3418252 11.53203,-27.0202922 0,0 18.56244,14.8499567 30.40527,10.22755 13.1663,-7.911571 7.76082,-22.643698 2.10646,-32.649433 0,0 32.13803,18.684903 35.50131,-0.747396 0,0 1.68164,-17.376959 -22.60873,-27.840505 0,0 -22.95441,35.829917 -94.46876,52.007357 -64.76229,14.6500403 -168.64147,5.343367 -229.15375,-22.485211 z"
           id="path3824"
           inkscape:connector-curvature="0"
           sodipodi:nodetypes="cccccccccssscccccccccsc" />
        <path
           style="fill:#de98ba;fill-opacity:1;stroke:none;stroke-width:7.1942"
           d="m -659.0256,-252.47679 c 0,0 -64.47564,-2.64244 -112.03963,57.60528 0,0 -21.66805,33.2948 -26.42445,63.94716 -4.7564,30.65235 -19.02559,39.636659 -19.02559,39.636659 0,0 -17.96863,8.455822 -19.55409,17.968621 -2.22529,13.351748 21.66804,28.538398 52.84888,38.051197 0,0 193.95541,61.833196 295.95376,-34.880264 0,0 8.45582,-14.269199 -7.92733,-24.310487 -16.38316,-10.041286 -20.61107,-26.424446 -20.61107,-26.424446 0,0 -15.85466,-69.23204 -45.97853,-93.54252 0,0 -44.39307,-43.33609 -97.24195,-38.0512 z"
           id="path3778"
           inkscape:connector-curvature="0"
           sodipodi:nodetypes="ccscsccsccc" />
        <ellipse
           style="fill:#d47fa6;fill-opacity:1;fill-rule:nonzero;stroke-width:7.1942"
           id="path3780"
           transform="matrix(1.1666667,0,0,1,122.6975,-3.699422)"
           cx="-769.4798"
           cy="-78.339714"
           rx="23.781998"
           ry="16.647398" />
        <ellipse
           transform="matrix(1.1666667,0,0,1,351.00468,-4.2279107)"
           id="path3782"
           style="fill:#d47fa6;fill-opacity:1;fill-rule:nonzero;stroke-width:7.1942"
           cx="-769.4798"
           cy="-78.339714"
           rx="23.781998"
           ry="16.647398" />
        <ellipse
           style="fill:#eab3ca;fill-opacity:1;fill-rule:nonzero;stroke-width:7.1942"
           id="path3794"
           transform="matrix(1.0972586,-0.45692758,0.41086241,1.2202813,148.55139,-278.98574)"
           cx="-705.00415"
           cy="-216.53955"
           rx="19.554087"
           ry="6.8703551" />
        <path
           style="fill:#eab3ca;fill-opacity:1;fill-rule:nonzero;stroke-width:7.1942"
           d="m -660.28686,-222.593 c -10.55042,-1.36914 -19.10227,-5.12411 -21.77838,-9.56253 -1.4283,-2.36889 -1.32786,-3.3274 0.57878,-5.52353 2.07968,-2.39546 6.71368,-4.48653 12.59542,-5.68363 6.29274,-1.28074 20.23312,-0.86285 26.78777,0.80304 11.06092,2.81117 17.63186,8.08172 15.6261,12.53372 -2.62604,5.82879 -18.78906,9.38218 -33.80969,7.43293 z"
           id="path3796"
           inkscape:connector-curvature="0" />
        <path
           style="fill:#eab3ca;fill-opacity:1;fill-rule:nonzero;stroke-width:7.1942"
           d="m -686.27701,-201.88412 c -2.46185,-0.48621 -5.82268,-3.16779 -5.82268,-4.64588 0,-2.57052 4.27096,-4.86565 9.05437,-4.86565 4.46593,0 8.38576,2.37622 8.38576,5.08348 0,1.31028 -3.98443,4.42552 -5.67437,4.43653 -0.60934,0.004 -1.68923,0.10373 -2.39976,0.2217 -0.71053,0.11796 -2.30501,0.0144 -3.54332,-0.23018 z"
           id="path3798"
           inkscape:connector-curvature="0" />
        <path
           style="fill:#eab3ca;fill-opacity:1;fill-rule:nonzero;stroke-width:7.1942"
           d="m -654.03853,-185.49345 c -2.97728,-0.55718 -5.94363,-1.83018 -7.85539,-3.37111 -4.87062,-3.92588 -3.47902,-8.82439 3.35124,-11.79655 3.02124,-1.31468 4.07287,-1.48598 9.12283,-1.48598 5.17478,0 6.03668,0.14899 9.22772,1.59513 6.47585,2.93477 7.9801,7.31337 3.81934,11.1174 -3.63352,3.32197 -11.544,5.08675 -17.66574,3.94111 z"
           id="path3800"
           inkscape:connector-curvature="0" />
        <path
           style="fill:#eab3ca;fill-opacity:1;fill-rule:nonzero;stroke-width:7.1942"
           d="m -610.93186,-197.71128 c -12.76994,-1.86249 -21.49516,-7.33866 -18.38911,-11.54147 2.56489,-3.47058 9.0826,-5.30486 18.95026,-5.33316 9.5958,-0.0275 16.45766,1.28321 22.4449,4.28736 3.23294,1.62215 5.7518,4.18597 5.7518,5.85446 0,2.64798 -5.47145,5.66757 -12.26802,6.77051 -3.88799,0.63093 -12.0331,0.61231 -16.48983,-0.0377 z"
           id="path3802"
           inkscape:connector-curvature="0" />
        <path
           style="fill:#eab3ca;fill-opacity:1;fill-rule:nonzero;stroke-width:7.1942"
           d="m -602.03856,-222.01952 c -3.2977,-0.41459 -8.99066,-2.90019 -10.02509,-4.37705 -1.29986,-1.85582 -0.94965,-3.28705 1.03474,-4.22871 4.72738,-2.24328 15.34015,0.53071 18.09072,4.72861 0.84823,1.29457 0.83785,1.40873 -0.22484,2.47142 -1.31496,1.31495 -4.98019,1.89546 -8.87553,1.40573 z"
           id="path3804"
           inkscape:connector-curvature="0" />
        <path
           style="fill:#4c3231;fill-opacity:1;stroke:none;stroke-width:7.1942"
           d="m -715.83815,-135.41651 c -2.18095,-3.87734 -2.39673,-7.20892 -4.80276,-9.47944 -8.77386,-8.27972 -20.6762,-5.69934 -27.96355,6.57275 -2.47217,5.74489 -6.05989,24.48872 -11.13182,24.42455 -8.96921,-6.65131 0.15636,-30.14582 5.16787,-36.48732 6.77208,-8.32491 17.05773,-11.92116 31.33142,-8.0198 0,0 14.53344,6.34186 19.81833,22.98926 v 0 c 0,0 2.64244,13.21222 1.05698,19.0256 0,0 -1.83122,8.91145 -5.56164,8.41111 -3.8905,-1.18238 -3.8439,-7.18337 -4.6637,-13.40751 -0.74084,-5.62462 -2.47992,-11.43146 -3.25113,-14.0292 z"
           id="path3810"
           inkscape:connector-curvature="0"
           sodipodi:nodetypes="csccccccccsc" />
        <path
           sodipodi:nodetypes="cscccccccccsc"
           inkscape:connector-curvature="0"
           id="path3812"
           d="m -614.51146,-136.73774 c 2.18095,-3.87734 2.39673,-7.20892 4.80276,-9.47944 8.77386,-8.27972 20.6762,-5.69934 27.96355,6.57275 0,0 5.28489,10.83402 5.54913,18.76136 0,0 2.68666,5.92006 5.58269,5.66319 8.96921,-6.65131 -0.15636,-30.14582 -5.16787,-36.48732 -6.77208,-8.32491 -17.05773,-11.92116 -31.33142,-8.0198 0,0 -14.53344,6.34186 -19.81833,22.98926 v 0 c 0,0 -2.64244,13.21222 -1.05698,19.0256 0,0 1.83122,8.91145 5.56164,8.41111 3.8905,-1.18238 3.8439,-7.18337 4.6637,-13.40751 0.74084,-5.62462 2.47992,-11.43146 3.25113,-14.0292 z"
           style="fill:#4c3231;fill-opacity:1;stroke:none;stroke-width:7.1942" />
        <path
           style="fill:#4c3231;fill-opacity:1;stroke:none;stroke-width:7.1942"
           d="m -664.07097,-67.462693 c 11.61141,0.473338 5.46424,-16.061432 10.94187,-16.61319 6.51432,6.08911 2.8387,15.030047 -1.70129,19.709391 -2.78198,2.867362 -5.39344,3.144406 -7.63897,3.09495 -4.443,-0.243516 -8.38741,-0.304495 -11.23059,-2.337692 -5.61612,-4.016176 -7.7022,-11.89364 -6.21518,-17.231185 0,0 1.47339,-2.688902 3.93657,-2.46375 2.56889,0.532067 1.2169,3.760982 1.75821,6.561825 1.11012,6.932244 5.14342,8.926703 10.14938,9.279651 z"
           id="path3814"
           inkscape:connector-curvature="0"
           sodipodi:nodetypes="ccscscccc" />
        <path
           style="fill:#563435;fill-opacity:1;fill-rule:nonzero;stroke-width:7.1942"
           d="m -750.80824,-140.55396 c 0,-0.23161 -0.23782,-0.4833 -0.52849,-0.55931 -0.29804,-0.0779 -0.52849,-0.36044 -0.52849,-0.64785 0,-0.43933 0.12759,-0.48571 0.92485,-0.33614 0.81973,0.15378 0.92486,0.11009 0.92486,-0.38439 0,-0.38174 0.16688,-0.5579 0.52849,-0.5579 0.35232,0 0.52849,-0.17616 0.52849,-0.52849 0,-0.35232 0.17616,-0.52849 0.52848,-0.52849 0.46443,0 0.52849,0.17617 0.52849,1.45335 v 1.45334 h -1.05697 c -0.88082,0 -1.05698,0.0881 -1.05698,0.52849 0,0.29361 -0.17616,0.52849 -0.39637,0.52849 -0.218,0 -0.39636,-0.1895 -0.39636,-0.4211 z"
           id="path3816"
           inkscape:connector-curvature="0" />
        <path
           style="fill:#b3dcd4;fill-opacity:1;stroke:none;stroke-width:7.1942"
           d="m -813.91435,-47.991727 c -4.80645,4.082496 -10.52486,11.406072 -16.83842,15.850913 -8.65507,6.093296 -20.01362,8.15865 -23.4294,-4.009019 -2.61328,-10.471682 4.26309,-23.40073 19.15388,-29.592552 0,0 10.2767,10.650395 21.11394,17.750658 z"
           id="path3820"
           inkscape:connector-curvature="0"
           sodipodi:nodetypes="csccc" />
        <path
           style="fill:#72bdb6;fill-opacity:1;stroke:none;stroke-width:7.1942"
           d="m -802.89729,252.66238 c -7.39885,-0.79274 -15.13934,-4.1638 -15.13934,-4.1638 -4.98936,2.44579 -9.89851,4.55079 -11.08354,8.54006 -1.74849,5.88608 1.54783,14.29541 9.93935,15.94172 9.20995,1.52817 20.00015,-7.91289 16.28353,-20.31798 z"
           id="path3828"
           inkscape:connector-curvature="0"
           sodipodi:nodetypes="ccscc" />
        <path
           style="fill:#72bdb6;fill-opacity:1;stroke:none;stroke-width:7.1942"
           d="m -787.40305,250.92212 c 0,0 5.47172,-2.79724 11.54935,-8.34637 17.56002,-3.22008 20.55524,19.83242 7.16859,23.87648 -8.1408,2.14553 -19.15197,-5.35191 -18.71794,-15.53011 z"
           id="path3834"
           inkscape:connector-curvature="0"
           sodipodi:nodetypes="cccc" />
        <path
           style="fill:#72bdb6;fill-opacity:1;stroke:none;stroke-width:7.1942"
           d="m -763.01517,209.04876 c 0,0 -2.64245,15.82261 -5.54914,20.84326 6.34814,9.511 18.50128,3.98663 20.1872,-4.3575 1.37256,-7.38471 -5.92314,-17.25659 -14.63806,-16.48576 z"
           id="path3836"
           inkscape:connector-curvature="0"
           sodipodi:nodetypes="cccc" />
        <path
           style="fill:#72bdb6;fill-opacity:1;stroke:none;stroke-width:7.1942"
           d="m -762.22244,175.07069 c 0,0 0,21.13955 -0.52849,23.25351 4.96167,0.28631 10.40612,2.42953 13.45986,1.35998 5.94919,-2.08364 7.84796,-8.97426 7.13779,-13.79557 -1.23926,-8.41337 -12.35685,-17.96216 -20.06916,-10.81792 z"
           id="path3838"
           inkscape:connector-curvature="0"
           sodipodi:nodetypes="ccssc" />
        <path
           style="fill:#72bdb6;fill-opacity:1;stroke:none;stroke-width:7.1942"
           d="m -725.92477,381.30407 c 0,0 11.29839,8.50116 19.75421,6.65145 0,0 6.71557,12.25142 -4.11846,15.42235 0,0 -9.5128,4.49216 -19.55408,-7.13459 0,0 -4.009,-7.80461 3.91833,-14.93921 z"
           id="path3854"
           inkscape:connector-curvature="0"
           sodipodi:nodetypes="ccccc" />
        <path
           style="fill:#72bdb6;fill-opacity:1;stroke:none;stroke-width:7.1942"
           d="m -696.09721,386.8532 c 0,0 7.41212,-1.1797 13.2255,-6.46459 8.15463,5.06856 16.90166,12.52012 6.56538,22.61644 -6.1721,5.95945 -21.13989,0.85743 -19.79088,-16.15185 z"
           id="path3856"
           inkscape:connector-curvature="0"
           sodipodi:nodetypes="cccc" />
        <path
           style="fill:#72bdb6;fill-opacity:1;stroke:none;stroke-width:7.1942"
           d="m -661.4038,351.05748 c 0,0 -11.56814,19.67681 -14.47483,21.26228 15.9894,10.89431 26.57006,-15.54149 14.47483,-21.26228 z"
           id="path3858"
           inkscape:connector-curvature="0"
           sodipodi:nodetypes="ccc" />
        <path
           style="fill:#72bdb6;fill-opacity:1;stroke:none;stroke-width:7.1942"
           d="m -655.19017,298.62763 c 0,0 -1.13437,22.57023 -2.98408,26.0054 4.42771,0.44762 11.39301,0.12389 14.07324,-1.44629 3.62745,-2.12512 4.26953,-6.09385 4.39622,-9.40675 0.25482,-6.66345 -8.62684,-13.63193 -15.48538,-15.15236 z"
           id="path3860"
           inkscape:connector-curvature="0"
           sodipodi:nodetypes="ccssc" />
        <path
           style="fill:none;stroke:#000000;stroke-width:7.1942px;stroke-linecap:butt;stroke-linejoin:miter;stroke-opacity:1"
           d="M -556.23452,386.46623 Z"
           id="path3864"
           inkscape:connector-curvature="0" />
        <path
           style="fill:#72bdb6;fill-opacity:1;stroke:none;stroke-width:7.1942"
           d="m -621.11041,265.25543 c 0,0 2.06861,18.60657 1.27588,25.47692 -2.31175,-0.74359 -7.71851,-1.1666 -9.59889,-2.02959 -3.70174,-1.69891 -6.08294,-4.30743 -6.80428,-7.3582 -1.72794,-7.30797 7.00932,-17.15262 15.12729,-16.08913 z"
           id="path3866"
           inkscape:connector-curvature="0"
           sodipodi:nodetypes="ccssc" />
        <path
           style="fill:#72bdb6;fill-opacity:1;stroke:none;stroke-width:7.1942"
           d="m -621.43878,318.63281 3.00288,22.27392 c 0,0 -7.2949,4.60161 -17.07194,-0.41903 -13.07885,-9.58464 2.64558,-26.88353 14.06906,-21.85489 z"
           id="path3868"
           inkscape:connector-curvature="0"
           sodipodi:nodetypes="cccc" />
        <path
           style="fill:#72bdb6;fill-opacity:1;stroke:none;stroke-width:7.1942"
           d="m -615.90292,364.34709 c 0,0 1.2571,17.78177 3.6353,24.38788 -5.57004,1.00485 -12.84949,1.47839 -16.16612,-0.72563 -3.1257,-2.07714 -3.74565,-6.34826 -4.15585,-9.12997 -1.01788,-6.90271 8.75146,-13.7881 16.68667,-14.53228 z"
           id="path3870"
           inkscape:connector-curvature="0"
           sodipodi:nodetypes="ccssc" />
        <path
           style="fill:#72bdb6;fill-opacity:1;stroke:none;stroke-width:7.1942"
           d="m -601.80728,407.72851 c 0,0 13.15359,11.82689 16.58877,12.61962 -3.52286,4.78487 -9.83134,10.95635 -15.65066,12.20244 -5.11795,1.09591 -12.7685,0.0916 -15.91133,-6.28639 -3.11626,-6.96808 5.86857,-17.8588 14.97322,-18.53567 z"
           id="path3872"
           inkscape:connector-curvature="0"
           sodipodi:nodetypes="ccscc" />
        <path
           style="fill:#72bdb6;fill-opacity:1;stroke:none;stroke-width:7.1942"
           d="m -570.09795,424.62138 c 0,0 13.0707,0.81151 17.03436,-1.56669 2.66364,3.96193 3.93013,8.19629 4.20331,11.24199 0.63939,7.12853 -5.48389,12.20854 -10.54965,12.10215 -3.8138,-0.0801 -8.34837,-0.91523 -10.89262,-4.39515 -2.67377,-3.65708 -2.27034,-12.8723 0.2046,-17.3823 z"
           id="path3874"
           inkscape:connector-curvature="0"
           sodipodi:nodetypes="ccsssc" />
        <path
           style="fill:#75bcb8;fill-opacity:1;stroke:none;stroke-width:7.1942"
           d="m -536.4748,209.85478 c 0,0 7.41213,11.74948 10.8473,13.33495 0,0 -3.91833,15.29962 -16.60206,13.9784 -16.24156,-3.37881 -7.51856,-26.39834 5.75476,-27.31335 z"
           id="path3878"
           inkscape:connector-curvature="0"
           sodipodi:nodetypes="cccc" />
        <path
           style="fill:#75bcb8;fill-opacity:1;stroke:none;stroke-width:7.1942"
           d="m -506.71135,231.30391 c 0,0 14.42398,2.42904 17.85916,-0.2134 6.21691,12.94987 -1.29717,21.68016 -8.20824,21.49396 -6.8025,-0.18328 -12.6059,-11.53299 -9.65092,-21.28056 z"
           id="path3880"
           inkscape:connector-curvature="0"
           sodipodi:nodetypes="ccsc" />
        <path
           style="fill:#75bcb8;fill-opacity:1;stroke:none;stroke-width:7.1942"
           d="m -552.00661,169.52156 c 0,0 3.98245,16.11891 5.56792,19.55408 -6.95108,2.76778 -14.72507,6.87197 -21.17353,1.3378 -2.65035,-2.42896 -3.31257,-6.79631 -3.73792,-8.30866 -1.91045,-6.79275 7.44115,-14.23251 19.34353,-12.58322 z"
           id="path3882"
           inkscape:connector-curvature="0"
           sodipodi:nodetypes="cccsc" />
        <path
           style="fill:#75bcb8;fill-opacity:1;stroke:none;stroke-width:7.1942"
           d="m -553.7922,119.0962 c 0,0 0.43782,17.9233 2.02329,22.94394 -9.00406,2.18201 -27.0654,1.80173 -26.96009,-7.43398 0.10947,-2.57465 -0.31736,-6.57802 1.13619,-9.35313 2.79873,-5.34332 8.24763,-8.26866 13.97222,-8.15246 2.93673,0.0596 7.06712,-0.8012 9.82839,1.99563 z"
           id="path3884"
           inkscape:connector-curvature="0"
           sodipodi:nodetypes="cccssc" />
        <path
           style="fill:#dc7ca2;fill-opacity:1;stroke:none;stroke-width:7.1942"
           d="m -778.23947,7.1287359 c 0,0 18.88503,124.4414541 16.64284,141.6315641 0,0 0.3737,60.91278 -2.24219,69.50783 0,0 -6.35286,44.84377 -49.32814,32.88543 0,0 -31.23584,-12.00367 -22.26709,-41.15212 11.25292,-22.8018 42.5188,-6.36901 30.65826,10.80875 -3.82062,3.42916 -8.42717,2.75771 -10.48685,4.09724 -1.65905,1.07899 -1.66565,4.01953 1.72198,7.18753 0,0 20.1797,15.32162 31.76434,-13.82683 0,0 10.46354,-30.75268 9.34245,-48.69019 0,0 -1.49479,-62.29813 -7.84766,-86.214802 0,0 -8.96875,-59.231141 -19.806,-90.9954755 0,0 11.0241,-7.4739615 15.88217,-14.7610735 0,0 -0.99539,10.751989 0.7709,18.5489642 0.76492,3.37659628 2.20235,9.2227736 5.19499,10.9731827 z"
           id="path3826"
           inkscape:connector-curvature="0"
           sodipodi:nodetypes="ccccccsccccccsc" />
        <path
           style="fill:#dc7ca2;fill-opacity:1;stroke:none;stroke-width:7.1942"
           d="m -670.65235,14.938567 c 0,0 3.58933,20.844356 5.70522,49.666494 4.05522,55.239169 7.64284,139.782129 4.86456,163.050269 0,0 -4.75641,83.76548 -10.30554,96.71346 -0.31585,7.10396 -5.60337,23.07637 -13.80859,34.23196 -7.06364,9.60352 -16.76849,15.43206 -21.74451,11.35153 -2.63655,-2.85186 1.89979,-4.45722 2.09536,-8.59697 0.40212,-8.51216 -3.31211,-21.58808 -23.35481,-13.73301 0,0 -12.94798,10.04129 -3.69942,28.5384 0,0 13.74071,24.83897 45.71428,6.34186 0,0 21.93229,-12.15524 26.68869,-44.6573 0,0 14.00496,-97.77044 11.891,-106.49051 0,0 0.79273,-125.5161 0,-127.63006 0,0 -2.90669,-85.988887 -3.96367,-87.838598 0,0 -7.45746,-12.1286862 -10.30553,-18.9028666 0,0 -5.02064,15.0486526 -9.77704,17.9553416 z"
           id="path3852"
           inkscape:connector-curvature="0"
           sodipodi:nodetypes="csccscsccccccccc" />
        <path
           style="fill:#dc7ca2;fill-opacity:1;stroke:none;stroke-width:7.1942"
           d="m -599.83485,24.187122 c 0,0 9.91856,1.115594 14.41072,-3.376561 -10.5693,113.845369 -43.47129,261.441659 -5.16216,355.878629 0,0 10.55484,29.61911 25.81666,26.78948 3.72331,-0.69032 8.72084,-3.06339 12.76302,-8.55662 0.23381,-1.59405 1.82122,-3.75756 0.3356,-5.06585 -1.41783,-1.2486 -5.87029,-1.62398 -7.32642,-3.83927 -4.03977,-6.14591 -6.23881,-15.88961 1.96333,-21.75663 8.20647,-5.47693 22.48332,-3.6237 28.39755,6.43119 5.97362,11.03867 1.28373,31.92367 -12.559,45.62541 -11.90535,11.25144 -31.09116,13.61666 -48.33376,4.76535 0,0 -26.42445,-15.85467 -28.5384,-58.66226 0,0 -6.87036,-47.29976 -4.22791,-71.346 -1.19348,-90.08694 12.1882,-177.36875 22.46077,-266.886868 z"
           id="path3862"
           inkscape:connector-curvature="0"
           sodipodi:nodetypes="cccscssccccccc" />
        <path
           style="fill:#dc7ca2;fill-opacity:1;stroke:none;stroke-width:7.1942"
           d="m -545.97432,3.6987897 c 0,0 9.18444,-2.86135153 12.61961,-12.9026397 0,0 -5.96816,80.162236 -6.76089,97.338124 -0.42001,21.710436 -2.75255,64.805736 4.39936,95.211966 5.52191,23.4763 17.65819,38.42787 34.70881,36.11751 0,0 16.91164,-7.1346 1.58547,-11.891 0,0 -5.29312,-1.29863 -7.18442,-4.69899 -2.01387,-14.69071 15.46105,-17.57537 24.40789,-14.45015 9.29862,3.5819 9.6703,17.06843 8.93672,23.90554 0,0 -2.64244,20.87531 -28.53839,21.66805 0,0 -24.31049,1.32122 -39.10818,-27.48142 0,0 -10.56978,-17.70438 -12.68373,-47.29976 0,0 -1.58547,-60.776211 -0.52849,-66.589591 z"
           id="path3876"
           inkscape:connector-curvature="0"
           sodipodi:nodetypes="cccscccccccccc" />
      </g>
      <g
         id="g3166"
         transform="translate(-930.14038,-264.24442)"
         style="stroke-width:7.1942">
        <path
           id="path3168"
           transform="translate(33.299365,37.066035)"
           d="m 144.03125,452.78125 c -16.90744,0 -30.625,14.41402 -30.625,32.21875 0,17.80473 13.71756,32.25 30.625,32.25 16.90744,0 30.625,-14.44527 30.625,-32.25 0,-17.80473 -13.71756,-32.21875 -30.625,-32.21875 z m -1.1875,9.96875 c 12.06473,0 21.84375,10.40296 21.84375,23.25 0,12.84704 -9.77902,23.28125 -21.84375,23.28125 C 130.77902,509.28125 121,498.84704 121,486 c 0,-12.84704 9.77902,-23.25 21.84375,-23.25 z"
           style="fill:#39b5b3;fill-opacity:1;stroke:none;stroke-width:7.1942"
           inkscape:connector-curvature="0" />
        <path
           sodipodi:nodetypes="ccccc"
           inkscape:connector-curvature="0"
           id="path3170"
           d="m 173.20977,514.73149 c -3.61977,2.16694 -9.05855,9.73868 -11.01241,4.48692 -0.58482,-1.75942 -0.1328,-5.56244 -0.1056,-6.04719 1.07938,-6.52282 11.08607,-8.98028 16.38564,-8.11943 10.22702,5.99392 -3.19585,8.49669 -5.26763,9.6797 z"
           style="fill:#2caeac;fill-opacity:1;stroke:none;stroke-width:7.1942" />
        <path
           id="path3172"
           transform="translate(33.299365,37.066035)"
           d="m 195.28125,510.0625 c -13.78038,0 -24.9375,11.67713 -24.9375,26.0625 0,14.38537 11.15712,26.03125 24.9375,26.03125 13.78038,0 24.96875,-11.64588 24.96875,-26.03125 0,-14.38537 -11.18837,-26.0625 -24.96875,-26.0625 z m -0.96875,8.0625 c 9.83333,0 17.8125,8.4327 17.8125,18.8125 0,10.3798 -7.97917,18.78125 -17.8125,18.78125 -9.83333,0 -17.8125,-8.40145 -17.8125,-18.78125 0,-10.3798 7.97917,-18.8125 17.8125,-18.8125 z"
           style="fill:#39b5b3;fill-opacity:1;stroke:none;stroke-width:7.1942"
           inkscape:connector-curvature="0" />
        <path
           style="fill:#2caeac;fill-opacity:1;stroke:none;stroke-width:7.1942"
           d="m 225.22139,567.25604 c -2.95028,1.75079 -7.38315,7.86839 -8.97564,3.62523 -0.47665,-1.42154 -0.10824,-4.49419 -0.086,-4.88585 0.87975,-5.27012 9.03568,-7.25563 13.3551,-6.56011 8.33551,4.84281 -2.60478,6.86493 -4.29339,7.82073 z"
           id="path3174"
           inkscape:connector-curvature="0"
           sodipodi:nodetypes="ccccc" />
        <path
           id="path3176"
           transform="translate(33.299365,37.066035)"
           d="m 143.3125,546.9375 c -13.78038,0 -24.96875,11.64588 -24.96875,26.03125 0,14.38537 11.18837,26.0625 24.96875,26.0625 13.78038,0 24.9375,-11.67713 24.9375,-26.0625 0,-14.38537 -11.15712,-26.03125 -24.9375,-26.03125 z M 142.34375,555 c 9.83333,0 17.78125,8.40145 17.78125,18.78125 0,10.3798 -7.94792,18.8125 -17.78125,18.8125 -9.83333,0 -17.8125,-8.4327 -17.8125,-18.8125 0,-10.3798 7.97917,-18.78125 17.8125,-18.78125 z"
           style="fill:#39b5b3;fill-opacity:1;stroke:none;stroke-width:7.1942"
           inkscape:connector-curvature="0" />
        <path
           sodipodi:nodetypes="ccccc"
           inkscape:connector-curvature="0"
           id="path3178"
           d="m 173.24674,604.11579 c -2.95029,1.75079 -7.38316,7.86839 -8.97564,3.62522 -0.47666,-1.42153 -0.10824,-4.49418 -0.086,-4.88585 0.87975,-5.27011 9.03568,-7.25563 13.35509,-6.5601 8.33552,4.84281 -2.60478,6.86492 -4.29338,7.82073 z"
           style="fill:#2caeac;fill-opacity:1;stroke:none;stroke-width:7.1942" />
      </g>
    </g>
  </g>
</svg>
