<?xml version="1.0" encoding="UTF-8" standalone="no"?>
<svg
   xmlns:dc="http://purl.org/dc/elements/1.1/"
   xmlns:cc="http://creativecommons.org/ns#"
   xmlns:rdf="http://www.w3.org/1999/02/22-rdf-syntax-ns#"
   xmlns:svg="http://www.w3.org/2000/svg"
   xmlns="http://www.w3.org/2000/svg"
   xmlns:sodipodi="http://sodipodi.sourceforge.net/DTD/sodipodi-0.dtd"
   xmlns:inkscape="http://www.inkscape.org/namespaces/inkscape"
   width="71.761803mm"
   height="45.428951mm"
   viewBox="0 0 71.761803 45.428951"
   version="1.1"
   id="svg856"
   inkscape:version="1.0.1 (3bc2e813f5, 2020-09-07)"
   sodipodi:docname="iconoBeankeeper.svg">
  <defs
     id="defs850" />
  <sodipodi:namedview
     id="base"
     pagecolor="#ffffff"
     bordercolor="#666666"
     borderopacity="1.0"
     inkscape:pageopacity="0.0"
     inkscape:pageshadow="2"
     inkscape:zoom="0.33582746"
     inkscape:cx="574.53815"
     inkscape:cy="51.564269"
     inkscape:document-units="mm"
     inkscape:current-layer="layer1"
     inkscape:document-rotation="0"
     showgrid="false"
     inkscape:window-width="1366"
     inkscape:window-height="715"
     inkscape:window-x="-8"
     inkscape:window-y="248"
     inkscape:window-maximized="1" />
  <metadata
     id="metadata853">
    <rdf:RDF>
      <cc:Work
         rdf:about="">
        <dc:format>image/svg+xml</dc:format>
        <dc:type
           rdf:resource="http://purl.org/dc/dcmitype/StillImage" />
        <dc:title></dc:title>
      </cc:Work>
    </rdf:RDF>
  </metadata>
  <g
     inkscape:label="Capa 1"
     inkscape:groupmode="layer"
     id="layer1"
     transform="translate(-105.48219,-134.52362)">
    <rect
       style="fill:#0d7e5d;fill-opacity:1;stroke:none;stroke-width:0.560692;stroke-dashoffset:0.937323"
       id="rect1505"
       width="71.761803"
       height="45.428951"
       x="105.48219"
       y="134.52362"
       rx="0"
       ry="0" />
    <g
       inkscape:label="Capa 1"
       id="layer1-2"
       transform="matrix(0.11663003,0,0,0.11663003,83.203011,166.5173)">
      <ellipse
         style="fill:#f3a334;fill-opacity:1;stroke-width:4.87163"
         id="path120"
         cx="528.22522"
         cy="-103.93393"
         rx="84.385338"
         ry="87.200989" />
      <ellipse
         style="fill:#ffe183;fill-opacity:1;stroke-width:4.83434"
         id="ellipse116"
         cx="525.50311"
         cy="-106.04361"
         rx="57.164261"
         ry="58.368404" />
      <g
         id="g1056">
        <ellipse
           style="fill:#f3a334;fill-opacity:1;stroke-width:5.76364"
           id="path118"
           cx="475.14417"
           cy="-58.926903"
           rx="84.385353"
           ry="87.201004" />
        <ellipse
           style="fill:#ffe183;fill-opacity:1;stroke-width:4.83434"
           id="path114"
           cx="472.42203"
           cy="-61.036633"
           rx="57.164261"
           ry="58.368404" />
      </g>
      <path
         id="path104"
         style="fill:#ad5b25;fill-opacity:1;stroke-width:0.913111"
         d="m 526.30093,-200.05215 c -30.31978,-0.41136 -60.89695,13.48976 -79.57669,43.05898 -4.13457,6.5449 -4.72091,7.07063 -11.04346,9.91086 -86.28038,38.75907 -72.16338,169.273158 20.1764,186.5344 35.9412,6.718556 73.66172,-9.733598 94.49781,-41.2152021 4.88149,-7.3755092 5.43619,-7.8846948 11.22769,-10.2942759 28.43221,-11.829279 49.97906,-38.508008 56.43974,-69.88447 2.31421,-11.239 1.23798,-15.585312 -4.18555,-16.907848 -4.32346,-1.054287 -6.91052,2.505092 -8.80529,12.11492 -4.39099,22.269978 -17.48082,42.51224 -35.03173,54.174492 -6.56475,4.362258 -6.65246,4.363363 -5.44214,0.04473 0.49129,-1.752996 1.31258,-5.901733 1.825,-9.220123 0.84896,-5.498138 1.35675,-6.486381 5.73161,-11.138647 39.23104,-41.718757 17.87012,-109.080956 -37.41334,-117.982466 -16.32829,-2.62912 -36.03932,2.44197 -48.88444,12.57722 l -4.18291,3.29999 h -9.94741 -9.94875 l 5.36188,-5.63595 c 36.49638,-38.36653 96.64955,-32.98007 125.89138,11.27325 3.13,4.73675 9.6472,19.41334 10.56453,23.79067 1.55289,7.40996 7.33858,10.00016 11.87241,5.31507 2.85915,-2.95456 2.53957,-6.09745 -1.84607,-18.16287 -14.47105,-39.81179 -50.68779,-61.15636 -87.28067,-61.65286 z m -0.23145,42.56676 c 0.76412,0.005 1.50127,0.0319 2.20399,0.0857 40.60349,3.103 63.36023,48.01516 42.41991,83.719388 -3.63096,6.190953 -3.98228,6.211582 -4.74213,0.292324 -4.25244,-33.125902 -27.83303,-61.668592 -63.39897,-76.738692 -5.35905,-2.27076 12.05536,-7.43045 23.5172,-7.3587 z m -52.78839,16.95818 c 29.26364,0.40226 58.24804,16.74785 72.34377,47.899478 22.32408,49.336387 -5.46152,106.777225 -56.99503,117.823386 -70.26757,15.061787 -123.26943,-66.741869 -83.42934,-128.766244 16.22098,-25.25332 42.25974,-37.31156 68.0806,-36.95662 z m -0.16193,14.76633 c -23.99087,-0.31321 -48.03616,12.29989 -60.38583,37.607914 -19.44331,39.845015 3.23065,89.2352108 45.35548,98.795755 55.58071,12.614449 100.61923,-49.97871 72.75297,-101.109955 -12.69731,-23.298064 -35.18578,-34.999494 -57.72262,-35.293714 z m -1.43554,13.67721 c 34.77673,-0.13287 66.82455,37.143852 49.1081,78.020894 -6.4827,14.957514 -21.47069,27.5063933 -36.88306,30.881485 -51.9121,11.3679804 -86.28073,-53.751557 -48.80682,-92.475849 11.06715,-11.43639 24.00295,-16.37845 36.58178,-16.42653 z m 1.49606,11.82531 c -1.50011,0.035 -3.08801,0.929779 -3.67109,2.6582 -0.69843,2.070291 -1.64535,2.85667 -3.98817,3.310865 -19.43436,3.767558 -20.12061,28.604042 -1.03158,37.327819 l 4.82767,2.206796 v 10.156954 10.158324 l -2.6461,-0.784566 c -1.45531,-0.431302 -4.45822,-2.07292 -6.67371,-3.64805 -4.92795,-3.503651 -7.05746,-3.598268 -9.47767,-0.418805 -4.71746,6.197399 1.65352,13.745409 13.71453,16.248423 3.02597,0.627957 5.08295,1.540055 5.08295,2.253025 0,0.658847 0.63547,1.854613 1.41182,2.656833 1.66993,1.725632 1.78984,1.740367 4.03688,0.497661 0.96222,-0.53213 1.73815,-1.935153 1.73815,-3.144995 0,-1.738761 0.60776,-2.303229 2.97897,-2.762895 20.02421,-3.881936 20.61637,-32.821058 0.83817,-40.958215 l -3.81714,-1.570472 v -9.082775 -9.08417 l 2.91845,0.749201 c 1.60563,0.411938 4.24366,1.298013 5.86186,1.9702 3.46716,1.440229 5.41209,0.55839 7.23556,-3.282289 2.2733,-4.788114 -2.36508,-8.876887 -11.70005,-10.316062 -3.38416,-0.521736 -4.27032,-1.044052 -4.49082,-2.641888 -0.23578,-1.709398 -1.64861,-2.534039 -3.14868,-2.499119 z m -4.51056,16.712061 c 1.25738,0.0321 1.54607,2.280917 1.54607,7.466101 0,4.084194 -0.10159,7.399217 -0.22508,7.366853 -6.74135,-1.766257 -9.32544,-8.609637 -4.77766,-12.651996 1.59921,-1.421494 2.70217,-2.200244 3.4566,-2.180958 z m 8.24609,31.80745 c 0.68116,0.001 1.70803,0.912466 3.25003,2.505908 2.78062,2.873405 3.45113,6.952495 1.7,10.333717 -0.50868,0.982219 -2.12467,2.426078 -3.59213,3.210248 l -2.66844,1.426336 v -8.842129 c 0,-6.109544 0.17518,-8.635791 1.31054,-8.63408 z" />
    </g>
  </g>
</svg>
