<?xml version="1.0" encoding="UTF-8" standalone="no"?>
<!-- Created with Inkscape (http://www.inkscape.org/) -->

<svg
   width="71.761803mm"
   height="45.428951mm"
   viewBox="0 0 71.761803 45.428951"
   version="1.1"
   id="svg5"
   xml:space="preserve"
   inkscape:version="1.2.2 (732a01da63, 2022-12-09)"
   sodipodi:docname="logo_josemar.svg"
   xmlns:inkscape="http://www.inkscape.org/namespaces/inkscape"
   xmlns:sodipodi="http://sodipodi.sourceforge.net/DTD/sodipodi-0.dtd"
   xmlns="http://www.w3.org/2000/svg"
   xmlns:svg="http://www.w3.org/2000/svg"><sodipodi:namedview
     id="namedview7"
     pagecolor="#ffffff"
     bordercolor="#000000"
     borderopacity="0.25"
     inkscape:showpageshadow="2"
     inkscape:pageopacity="0.0"
     inkscape:pagecheckerboard="0"
     inkscape:deskcolor="#d1d1d1"
     inkscape:document-units="mm"
     showgrid="false"
     inkscape:zoom="0.71624579"
     inkscape:cx="177.31343"
     inkscape:cy="99.826067"
     inkscape:window-width="1920"
     inkscape:window-height="991"
     inkscape:window-x="-9"
     inkscape:window-y="-9"
     inkscape:window-maximized="1"
     inkscape:current-layer="layer1" /><defs
     id="defs2" /><g
     inkscape:label="Capa 1"
     inkscape:groupmode="layer"
     id="layer1"
     transform="translate(-36.522084,-122.09149)"><rect
       style="fill:#ffffff;fill-opacity:1;stroke:none;stroke-width:0.560692;stroke-dashoffset:0.937323"
       id="rect1505"
       width="71.761803"
       height="45.428951"
       x="36.522083"
       y="122.09149"
       rx="0"
       ry="0" /><g
       id="g2333"
       transform="matrix(0.07268684,0,0,0.07268684,75.518847,115.38678)"><path
         style="fill:#3e4095;fill-opacity:1;stroke-width:0.0846667"
         d="m -143.60408,517.3845 c -12.67536,-0.43067 -23.14125,-2.23773 -31.07266,-5.3651 -1.72594,-0.68054 -5.06997,-2.35335 -6.48955,-3.24632 -6.31281,-3.97098 -9.74742,-8.9323 -11.20746,-16.18924 -0.45397,-2.25641 -0.54084,-3.20129 -0.54484,-5.92667 -0.005,-3.30334 0.22815,-5.22128 1.01831,-8.382 2.87014,-11.48089 11.84997,-24.00724 25.52744,-35.60931 2.17471,-1.84473 6.36372,-5.11536 6.55172,-5.11536 0.0332,0 -0.0608,0.16193 -0.20878,0.35984 -2.60591,3.48399 -6.1815,8.83664 -8.63743,12.93024 -3.46136,5.76945 -6.19164,11.40622 -7.83416,16.17392 -5.77044,16.7497 -0.94287,27.7593 14.47675,33.01524 13.44387,4.58247 35.28162,4.62534 64.055993,0.12574 45.753769,-7.15475 104.9942869,-26.3344 158.792327,-51.41043 49.08605,-22.8797 90.21136,-48.87729 118.82966,-75.1188 6.3901,-5.85939 13.17162,-12.82873 18.0826,-18.58341 12.40889,-14.54075 17.5935,-27.15206 15.4484,-37.57744 -1.54297,-7.49893 -7.08208,-13.83696 -15.98914,-18.29526 -1.78843,-0.89517 -3.97101,-1.79618 -5.98486,-2.47067 -2.04648,-0.68541 -2.04804,-0.71121 -0.0302,-0.49935 10.02003,1.05205 17.66717,3.77286 23.27121,8.27976 6.97453,5.60908 10.09051,13.87958 8.84238,23.46962 -0.88847,6.82664 -3.69345,13.88986 -8.57394,21.59 -13.5553,21.38672 -35.65765,42.74641 -65.96977,63.7531 -38.38781,26.60325 -90.0418,52.35446 -147.5316641,73.54937 -17.6045959,6.49033 -38.7157369,13.47139 -53.1706639,17.58257 -22.901807,6.51356 -48.949122,11.12211 -70.866002,12.53829 -7.39301,0.47771 -14.74608,0.62687 -20.78566,0.42167 z m -165.69265,-76.35184 v -0.43172 l 0.52917,-0.26603 c 1.01553,-0.51053 2.31762,-1.28801 3.7465,-2.23703 4.8123,-3.19618 8.52032,-7.28317 10.75155,-11.85038 1.67763,-3.434 2.49733,-6.82134 2.98106,-12.319 0.14159,-1.60914 0.15272,-3.12439 0.15272,-20.78566 0,-17.99725 -0.009,-19.11544 -0.15547,-20.23404 -0.20635,-1.57163 -0.56131,-2.94071 -0.99441,-3.8355 -0.2895,-0.59811 -0.48707,-0.86323 -1.08375,-1.45429 -0.47895,-0.47444 -0.95885,-0.85187 -1.39653,-1.09833 -0.63585,-0.35804 -2.38522,-1.01988 -2.69867,-1.02099 -0.12586,-4.2e-4 -0.14817,-0.0834 -0.14817,-0.55085 0,-0.34186 0.0351,-0.55034 0.0926,-0.55034 0.0509,0 1.1844,0.0755 2.51884,0.16769 8.30638,0.57409 11.74002,0.574 19.74057,-5.1e-4 1.28058,-0.0919 2.37795,-0.16719 2.43859,-0.16719 0.0798,-10e-6 0.10318,0.12236 0.0847,0.44248 l -0.0256,0.44248 -0.71966,0.18447 c -2.58388,0.6623 -4.11785,1.84022 -4.92105,3.77883 -0.32369,0.78128 -0.62088,1.95663 -0.80785,3.19507 -0.13495,0.89378 -0.14952,2.34893 -0.17767,17.73766 -0.0344,18.78926 0.006,20.94808 0.45179,23.91834 0.401,2.67435 1.07456,4.34676 2.5568,6.34839 0.1,0.13501 0.0272,0.14887 -1.016,0.19354 -2.01911,0.0865 -3.46868,0.49513 -4.78894,1.35007 -0.90757,0.58769 -2.91979,2.63829 -4.40883,4.49292 -1.43049,1.78171 -2.83956,3.32139 -4.16882,4.55523 -4.79049,4.44661 -9.98214,7.78123 -14.71112,9.44901 -1.08312,0.38199 -2.70787,0.81917 -3.42014,0.9203 l -0.40217,0.0571 v -0.43174 z m 70.31566,-19.14746 c -6.75243,-0.45974 -12.68864,-2.64438 -17.49232,-6.43751 -1.09195,-0.86224 -3.30543,-3.07043 -4.1538,-4.14385 -3.30933,-4.1873 -5.21588,-8.90672 -5.96853,-14.77434 -0.19048,-1.48504 -0.22014,-6.41939 -0.0471,-7.83166 0.5111,-4.17052 1.41482,-7.25142 3.09071,-10.53663 4.33919,-8.50606 12.90621,-13.98703 23.42271,-14.98527 1.77599,-0.16858 4.90175,-0.17086 6.6592,-0.005 13.25706,1.25219 23.16331,9.29259 26.0667,21.15699 0.63983,2.61459 0.89755,4.87713 0.89801,7.88371 8.5e-4,2.94722 -0.20924,5.01415 -0.76671,7.5575 -2.53183,11.55073 -11.26447,19.64016 -23.41156,21.68716 -2.41644,0.40721 -5.93975,0.58928 -8.29734,0.42876 z m 5.31262,-4.49489 c 7.29039,-1.02458 11.84175,-6.37826 13.43986,-15.80908 0.82637,-4.87656 0.89545,-11.931 0.16597,-16.94739 -0.88004,-6.05168 -2.82215,-10.54411 -5.76637,-13.33855 -2.23343,-2.11979 -4.7524,-3.29806 -8.15674,-3.81535 -1.29619,-0.19695 -4.23163,-0.19676 -5.50334,3.4e-4 -4.31289,0.66854 -7.4205,2.58292 -9.77203,6.01986 -2.28259,3.33619 -3.58693,7.6883 -4.21223,14.05467 -0.21616,2.20091 -0.21829,8.84814 -0.003,10.93423 0.57948,5.62775 1.76806,9.52815 3.88099,12.73566 0.88668,1.34602 2.57819,3.07262 3.79534,3.87407 3.24613,2.13745 7.50475,2.94182 12.13203,2.29152 z m 48.83171,4.23816 c -1.86249,-0.20264 -3.63787,-0.52196 -7.747,-1.39339 -1.80892,-0.38362 -3.7685,-0.69339 -4.86335,-0.76879 -1.25854,-0.0867 -1.16347,0.16408 -1.21676,-3.20945 -0.0243,-1.5367 -0.10208,-3.46075 -0.17289,-4.27567 -0.3123,-3.59391 -0.38111,-7.29399 -0.17045,-9.16517 l 0.0548,-0.48683 h 0.53688 c 0.616,0 0.57961,-0.0557 0.66409,1.016 0.0691,0.87654 0.41048,2.50791 0.72642,3.47133 0.33743,1.02901 1.13163,2.68865 1.71328,3.5803 1.95751,3.00081 5.21747,5.52577 8.53909,6.61386 1.40071,0.45884 2.54586,0.65343 4.15028,0.70524 3.67382,0.11866 6.23674,-0.80512 8.43435,-3.0401 1.23787,-1.25892 2.03136,-2.65671 2.44289,-4.3033 0.21923,-0.8772 0.22312,-3.48716 0.006,-4.34872 -0.67122,-2.66936 -2.16261,-4.27635 -5.57356,-6.00553 -2.06982,-1.04931 -4.02856,-1.83827 -9.09088,-3.66176 -4.18457,-1.50732 -7.26217,-2.84908 -8.73751,-3.80936 -3.09095,-2.01185 -5.18539,-5.1467 -5.78757,-8.66254 -0.18631,-1.0877 -0.22014,-2.89542 -0.0742,-3.96479 0.35045,-2.56814 1.5485,-5.28847 3.2886,-7.4672 0.72109,-0.90285 2.3497,-2.49825 3.3097,-3.24221 3.69407,-2.86277 8.55884,-4.70874 13.78847,-5.23214 1.11815,-0.1119 3.98629,-0.11166 5.30386,4.3e-4 2.89608,0.24643 5.82016,0.74259 9.53774,1.61836 l 1.49441,0.35205 0.0468,1.36253 c 0.0258,0.74939 0.10674,2.96273 0.17994,4.91853 0.14368,3.83885 0.15975,5.36544 0.0734,6.9717 l -0.0554,1.0293 h -0.49498 -0.49499 v -0.419 c 0,-0.23045 -0.0571,-0.85473 -0.12693,-1.3873 -0.43052,-3.28419 -2.04981,-5.80968 -4.80548,-7.49476 -1.47535,-0.90217 -3.03832,-1.55905 -4.76192,-2.00131 -1.9562,-0.50194 -2.7697,-0.59084 -5.41867,-0.59214 -2.48727,-10e-4 -2.88278,0.037 -4.47034,0.43232 -3.32035,0.82675 -6.10074,3.03083 -6.92952,5.49319 -0.17555,0.52159 -0.1989,0.74496 -0.19464,1.86266 0.005,1.20904 0.0183,1.30953 0.28522,2.09356 0.61703,1.8124 1.67565,2.91238 4.17672,4.33994 1.92237,1.09726 4.69525,2.30672 8.85089,3.86054 6.13206,2.29282 9.25411,3.6969 11.06512,4.97632 0.842,0.59485 2.46977,2.20419 3.13614,3.10063 2.57174,3.45969 3.51316,7.46537 2.8658,12.19368 -1.1416,8.33825 -7.26163,13.63137 -17.13439,14.81926 -1.34363,0.16166 -5.28195,0.2359 -6.35,0.11971 z m 30.05667,-0.86812 c 0,-0.46705 0.001,-0.46908 0.3175,-0.57073 1.67808,-0.53916 2.99225,-1.49984 3.87185,-2.83037 1.25173,-1.89345 1.831,-3.77986 2.07162,-6.74637 0.218,-2.6876 0.26905,-7.19791 0.2346,-20.72971 -0.0247,-9.68528 -0.0647,-14.15977 -0.13156,-14.68967 -0.53565,-4.24748 -1.12793,-5.87454 -2.79311,-7.6731 -0.93431,-1.00912 -2.01271,-1.73031 -3.0998,-2.07299 l -0.4711,-0.1485 v -0.45946 -0.45946 l 0.91016,0.0532 c 0.5006,0.0293 2.41512,0.10932 4.2545,0.17791 1.83939,0.0686 4.23968,0.17265 5.33399,0.23123 1.38005,0.0739 5.08966,0.10652 12.10734,0.10652 10.34794,0 10.56337,-0.005 17.82233,-0.38555 1.72297,-0.0904 3.19517,-0.16446 3.27155,-0.16458 0.12528,-1.7e-4 0.13481,0.15527 0.0973,1.58729 -0.0263,1.00303 0.0101,2.41355 0.0987,3.83117 0.0772,1.23402 0.16282,3.07234 0.19023,4.08517 l 0.0499,1.8415 h -0.39802 -0.39802 l -0.18301,-0.4445 c -0.90123,-2.18902 -2.03594,-3.93525 -3.20634,-4.93429 -1.06363,-0.9079 -2.94319,-1.42448 -5.99927,-1.64888 -1.50904,-0.1108 -12.34537,-0.10855 -13.335,0.003 -1.39266,0.15665 -1.28273,0.0962 -1.51458,0.83234 -0.61098,1.93968 -0.79861,4.90351 -0.87082,13.75502 l -0.0517,6.33478 7.18753,-0.036 c 6.13623,-0.0307 7.33615,-0.0568 8.20354,-0.1783 2.36215,-0.33091 3.47021,-0.76458 4.3462,-1.70102 0.79358,-0.84834 1.28026,-1.74427 1.88654,-3.47296 l 0.32664,-0.93134 0.50914,-0.0252 c 0.44303,-0.0219 0.50911,-0.005 0.50887,0.127 0,0.0837 -0.064,0.9904 -0.14191,2.01487 -0.20293,2.66901 -0.20619,8.41916 -0.006,10.87967 0.14669,1.80418 0.31653,4.39895 0.31729,4.84716 0,0.22809 -0.01,0.23284 -0.50599,0.23284 -0.57943,0 -0.50182,0.13416 -0.71261,-1.23179 -0.18355,-1.18953 -0.49883,-2.23072 -0.96013,-3.17088 -0.32756,-0.66758 -0.51774,-0.92734 -1.1186,-1.52782 -0.79217,-0.79167 -1.58806,-1.25139 -2.75594,-1.59188 -1.82785,-0.53289 -3.0893,-0.60399 -10.7315,-0.60489 l -6.32882,-7.4e-4 v 6.9215 c 0,3.80682 0.0391,7.8359 0.0865,8.9535 0.14637,3.44843 0.501,7.21599 0.69023,7.33294 0.0514,0.0317 0.53574,0.10933 1.07636,0.17239 0.74672,0.0871 2.54971,0.11423 7.50229,0.11286 6.9983,-0.002 7.32338,-0.018 9.60966,-0.47464 3.07885,-0.61496 5.12631,-1.91629 7.30966,-4.64589 0.51785,-0.64741 2.03883,-2.85712 2.10665,-3.06059 0.015,-0.0449 0.24307,-0.07 0.50688,-0.0557 l 0.47964,0.026 -0.32871,1.27 c -0.18079,0.6985 -0.56524,2.01295 -0.85433,2.921 -1.2245,3.84628 -1.45475,4.62592 -1.91282,6.477 -0.26504,1.07103 -0.48732,1.95699 -0.49395,1.9688 -0.007,0.0118 -0.56121,-0.0356 -1.23238,-0.10525 -4.05548,-0.42109 -3.66307,-0.41114 -17.6033,-0.44636 -12.69761,-0.0321 -15.64483,0.002 -20.36233,0.23677 -1.92223,0.0956 -3.89159,0.2314 -4.42383,0.30511 l -0.35983,0.0498 v -0.46871 z m 53.00132,-0.002 c 0,-0.46531 0.001,-0.46743 0.3175,-0.56804 0.17462,-0.0556 0.65804,-0.27758 1.07427,-0.49341 1.303865,-0.67608 2.622023,-2.10235 3.414373,-3.6944 0.91428,-1.83704 1.56778,-4.50266 1.8376,-7.49562 0.15597,-1.73008 1.6004,-37.7046 1.52585,-38.00271 -0.0905,-0.362 -2.20253,-2.38233 -3.13193,-2.99596 -1.13253,-0.74776 -2.551828,-1.42215 -3.915583,-1.86052 l -1.12158,-0.36052 v -0.45412 -0.45411 l 0.35983,0.0511 c 0.65829,0.0935 3.385523,0.30426 5.101173,0.39416 0.93133,0.0488 4.66966,0.11176 8.3074,0.13989 l 6.61406,0.0512 8.085492,18.32308 c 4.447015,10.07771 8.114529,18.32298 8.15003,18.32283 0.03551,0 3.617764,-8.24151 7.96058,-18.31414 l 7.896021,-18.31388 6.422872,-0.0501 c 6.507336,-0.0508 6.946417,-0.0687 11.271427,-0.46021 0.757479,-0.0686 1.414704,-0.12466 1.4605,-0.12466 0.04581,0 0.08328,0.20348 0.08328,0.45219 v 0.45219 l -0.486833,0.10694 c -2.781444,0.61096 -5.019234,2.8016 -6.070176,5.94228 -0.530293,1.58477 -0.590728,2.18073 -0.569841,5.6194 0.01708,2.81168 0.94245,26.15461 1.203274,30.353 0.244823,3.9409 0.890347,6.97536 1.914754,9.00086 1.025466,2.02758 2.748398,3.37867 4.905468,3.84678 l 0.627354,0.13613 v 0.46065 0.46064 l -0.529166,-0.0533 c -4.331149,-0.43608 -7.904319,-0.57511 -13.809819,-0.53736 -5.539494,0.0354 -6.563986,0.0876 -10.44718,0.5322 l -0.4445,0.0509 v -0.46143 -0.46143 l 0.486833,-0.18216 c 0.993589,-0.37173 1.729749,-0.85232 2.527639,-1.65011 1.475206,-1.47502 2.268711,-3.31216 2.716598,-6.28952 0.258766,-1.72012 0.182295,-4.88603 -0.51899,-21.48565 -0.352044,-8.33311 -0.64008,-15.34161 -0.64008,-15.57443 0,-0.26394 -0.02986,-0.39303 -0.07931,-0.34288 -0.04362,0.0442 -2.953876,6.78603 -6.467229,14.98176 -9.724568,22.68483 -11.209435,26.12729 -12.416824,28.78667 -0.613113,1.35043 -1.141713,2.48311 -1.174665,2.51707 -0.03296,0.034 -4.647345,-10.35842 -10.254189,-23.09419 -5.60685,-12.73576 -10.21873,-23.12674 -10.24864,-23.09107 -0.0501,0.0597 -1.2931,30.63449 -1.39249,34.25089 -0.11921,4.33709 0.63007,7.1671 2.39577,9.04881 0.96787,1.03147 2.26335,1.73595 3.71887,2.0223 l 0.52804,0.10389 v 0.46547 0.46547 l -0.32588,-0.0521 c -1.34035,-0.21433 -6.55018,-0.56221 -8.41796,-0.5621 -1.72048,0 -5.979948,0.29532 -8.041333,0.55734 l -0.40216,0.0511 v -0.46704 z m 76.961997,-0.005 v -0.45602 l 0.577875,-0.34331 c 2.46358,-1.46358 5.043991,-4.30766 7.234132,-7.97332 1.097728,-1.83728 1.667069,-2.9921 10.3101719,-20.91267 l 8.228211,-17.06033 -0.369366,-0.71221 c -2.00778603,-3.8714 -5.228506,-6.49627 -9.204062,-7.50126 -0.911513,-0.23043 -2.3811569,-0.46084 -2.9551289,-0.46332 l -0.359834,-0.002 v -0.47843 -0.47844 l 2.6034999,0.0525 c 1.431925,0.0289 3.07975,0.0911 3.661833,0.13822 4.31728897,0.34978 4.81836297,0.36989 10.45055,0.41934 l 5.7515421,0.0505 0.484454,1.28103 c 0.661425,1.74898 1.605077,4.03742 2.78848,6.76231 0.546041,1.2573 1.232408,2.8956 1.52527,3.64066 0.700176,1.7813 12.190204,27.23087 13.378933,29.63334 2.38594,4.8221 4.757631,8.30904 7.372899,10.83987 1.281058,1.2397 2.714642,2.27957 3.920719,2.84396 l 0.555151,0.25979 v 0.46745 0.46743 l -0.4445,-0.0519 c -0.830208,-0.0969 -3.400451,-0.30142 -5.5245,-0.43958 -1.699954,-0.11058 -3.050108,-0.12954 -6.857999,-0.0963 -4.556802,0.0397 -6.129664,0.10475 -10.686694,0.44169 -0.941612,0.0696 -1.732187,0.12659 -1.756833,0.12659 -0.02465,0 -0.04481,-0.20084 -0.04481,-0.44632 v -0.44631 l 0.740833,-0.22565 c 3.544256,-1.07959 3.894082,-4.41301 1.135964,-10.82452 -0.344314,-0.8004 -4.570095,-10.25182 -4.928624,-11.0234 l -0.108357,-0.23321 -9.3569441,0.0215 -9.356953,0.0215 -2.27308,4.74134 c -1.250205,2.60773 -2.3648579,4.96993 -2.4770249,5.24933 -0.112166,0.2794 -0.433231,0.98425 -0.713486,1.56633 -0.893004,1.85474 -1.218158,3.16062 -1.22273,4.91067 -0.0045,1.72948 0.405104,2.85917 1.443363,3.98059 0.586148,0.63309 1.266072,1.12568 2.1091569,1.52805 l 0.539216,0.25734 v 0.46135 0.46134 l -0.275166,-8.5e-4 c -0.151342,0 -1.2848169,-0.11717 -2.5188329,-0.25963 -3.941318,-0.45502 -6.480006,-0.44275 -10.964333,0.053 -1.024467,0.11326 -1.986492,0.20621 -2.137833,0.20658 l -0.275167,8.4e-4 v -0.45601 z m 35.644665,-26.73192 c 0,-0.0986 -7.0156321,-15.81727 -7.1093331,-15.92857 -0.04817,-0.0572 -7.79498,15.80814 -7.79288,15.95967 8.46e-4,0.0349 3.35367997,0.0635 7.451546,0.0635 5.432332,0 7.4506671,-0.0256 7.4506671,-0.0946 z m 34.374664,26.73564 c 0,-0.39287 0.02568,-0.47904 0.142757,-0.47904 0.756632,0 2.497455,-0.76389 3.423589,-1.50231 0.634179,-0.50563 1.604205,-1.62691 1.967967,-2.27481 0.737032,-1.31277 1.252017,-3.21205 1.535057,-5.66135 0.268588,-2.32416 0.309305,-5.29939 0.274659,-20.06786 -0.03692,-15.74205 -0.02447,-15.29905 -0.49287,-17.526 -0.877231,-4.1707 -2.991747,-6.81867 -6.194992,-7.75787 l -0.656167,-0.19239 v -0.4487 c 0,-0.30331 0.0343,-0.44823 0.105834,-0.44724 0.05821,8.4e-4 0.448733,0.0372 0.867833,0.0808 1.087535,0.11324 4.666073,0.31858 7.554476,0.4335 2.813461,0.11194 10.227561,0.0557 11.834191,-0.0898 6.73799,-0.61013 10.16265,-0.55889 14.26633,0.21346 8.47487,1.59505 13.58216,5.64366 14.70981,11.66065 0.20709,1.10499 0.19958,3.99922 -0.0134,5.1836 -0.31035,1.72545 -0.92516,3.32628 -1.73616,4.52052 -1.06532,1.56875 -2.86172,2.96607 -5.06436,3.93925 -1.31554,0.58125 -2.63025,1.01296 -6.20491,2.03752 -1.84069,0.52758 -3.47899,1.0151 -3.64066,1.08338 -0.28719,0.12129 -0.28908,0.12523 -0.0823,0.17156 0.11641,0.0261 0.67829,0.14677 1.2486,0.26821 2.28634,0.48684 4.23131,1.33114 5.88196,2.55334 1.90421,1.40993 4.99916,4.37801 9.17012,8.79422 3.87478,4.10261 6.27843,6.24476 9.07709,8.08952 2.00678,1.3228 3.85957,2.12062 5.60076,2.41171 1.35785,0.227 2.39732,0.0628 3.33579,-0.52686 0.17636,-0.11081 0.35293,-0.18152 0.39239,-0.15713 0.0395,0.0244 0.0983,0.2216 0.13082,0.43824 l 0.0591,0.39391 -0.53613,0.5472 c -0.71267,0.72738 -1.87773,1.6271 -2.8413,2.19419 -4.01255,2.36151 -10.12325,3.22326 -14.29203,2.0155 -2.88305,-0.83526 -4.53918,-2.00082 -8.59604,-6.04978 -2.30935,-2.30484 -3.541,-3.63354 -7.45663,-8.04417 -3.20103,-3.60568 -4.71476,-5.22517 -6.72935,-7.19952 -2.00465,-1.9646 -3.64562,-3.22146 -5.58911,-4.28086 -0.60132,-0.32778 -2.23505,-1.05029 -2.3749,-1.05029 -0.0234,0 -0.0245,3.40043 -0.003,7.5565 0.0328,6.21449 0.064,7.7595 0.17566,8.6995 0.46677,3.92918 1.44771,6.4319 3.18577,8.128 0.94822,0.92533 1.91695,1.45371 3.23041,1.76196 l 0.57964,0.13603 v 0.44801 c 0,0.2464 -0.0332,0.448 -0.0737,0.448 -0.0406,0 -0.62157,-0.0562 -1.29116,-0.12477 -3.72802,-0.38209 -4.31983,-0.40698 -10.57312,-0.44453 -6.463991,-0.0388 -5.991289,-0.0559 -9.778996,0.35428 -0.651933,0.0706 -1.937808,0.15389 -2.857499,0.18507 l -1.672167,0.0567 v -0.47904 z M 73.37987,391.54494 c 2.74919,-0.51584 4.70232,-1.63597 6.12163,-3.51075 1.59391,-2.10543 2.36735,-5.28717 2.254,-9.27243 -0.10886,-3.8276 -1.04778,-6.41077 -3.01242,-8.28777 -1.86652,-1.78326 -4.36814,-2.61599 -7.8865,-2.62525 -1.63083,-0.004 -2.61469,0.12626 -3.71697,0.4932 -0.83027,0.27639 -1.85658,0.8605 -1.99355,1.1346 -0.27747,0.55531 -0.55041,2.24807 -0.7306,4.53116 -0.0538,0.68139 -0.11236,4.53811 -0.13779,9.07153 l -0.0442,7.88621 0.61593,0.14009 c 0.88246,0.20071 2.45353,0.45928 3.34021,0.54974 1.13731,0.11603 4.34761,0.0478 5.19029,-0.11033 z m 80.66171,-27.53819 c -0.18627,-0.0188 -0.85302,-0.0935 -1.48167,-0.16608 -4.59769,-0.53069 -9.26349,-2.06697 -13.41967,-4.4186 -1.1877,-0.67202 -3.51861,-2.26032 -4.69899,-3.20194 -1.47334,-1.17531 -4.36232,-4.06429 -5.53763,-5.53763 -0.94162,-1.18039 -2.52992,-3.51129 -3.20194,-4.699 -2.30739,-4.07799 -3.75032,-8.40166 -4.40502,-13.19944 -0.25632,-1.87839 -0.27634,-6.80048 -0.0352,-8.64456 0.35038,-2.6791 0.86855,-4.93886 1.66926,-7.27973 2.46018,-7.19232 7.04794,-13.33488 13.24615,-17.73525 9.25811,-6.57274 21.0963,-8.33603 31.877,-4.74807 8.36867,2.7852 15.42432,8.57625 19.8504,16.29257 1.98611,3.46253 3.45755,7.56469 4.14852,11.56548 0.37368,2.16368 0.49625,3.66931 0.49625,6.096 0,2.42669 -0.12257,3.93232 -0.49625,6.096 -1.92771,11.1617 -9.11935,20.79861 -19.34225,25.91893 -3.58132,1.79376 -7.19509,2.89565 -11.38614,3.47179 -1.03016,0.14161 -1.80994,0.17943 -4.10786,0.19924 -1.55999,0.0134 -2.98874,0.009 -3.175,-0.01 z m 6.05366,-5.16018 c 6.90334,-0.73825 13.34228,-3.8198 18.29377,-8.75502 1.3872,-1.38265 2.18162,-2.30282 3.24038,-3.75331 4.66074,-6.38515 6.67782,-14.39118 5.59252,-22.19732 -0.76479,-5.50078 -2.96729,-10.58968 -6.50493,-15.02975 -1.08337,-1.35973 -3.34601,-3.62158 -4.72154,-4.71991 -4.60787,-3.67925 -10.00333,-5.92222 -15.85786,-6.59236 -1.54683,-0.17705 -4.88833,-0.19948 -6.30767,-0.0423 -5.23481,0.5796 -9.83275,2.23312 -14.06328,5.05744 -3.26197,2.17771 -6.08192,4.97694 -8.31742,8.25633 -0.95757,1.40472 -1.46525,2.27968 -2.24798,3.87434 -2.96454,6.03964 -3.82466,12.88441 -2.46048,19.58015 1.44114,7.07342 5.46977,13.52131 11.27201,18.04102 1.75856,1.36986 3.44954,2.41239 5.59678,3.45058 5.09287,2.46239 10.78572,3.4397 16.4857,2.83014 z m -16.129,-7.01248 c -2.25405,-0.51757 -4.00266,-2.16047 -4.69508,-4.41125 -0.33119,-1.07655 -0.42617,-2.05505 -0.42739,-4.40267 -0.001,-2.43354 -0.0692,-3.06606 -0.40223,-3.74625 -0.39188,-0.80032 -0.9424,-1.20963 -2.89854,-2.15503 -3.07923,-1.4882 -3.6557,-1.84123 -4.66026,-2.85401 -1.33752,-1.34845 -1.946,-2.92369 -1.83376,-4.74731 0.2073,-3.36833 3.07855,-6.05773 6.96251,-6.52156 2.86156,-0.34173 6.60402,0.92486 10.69642,3.62005 1.01656,0.6695 2.86868,2.03665 3.04197,2.24547 0.0862,0.1038 -0.34233,0.40311 -2.70149,1.88712 -1.54214,0.97007 -2.82047,1.80701 -2.84076,1.85987 -0.0265,0.0691 2.17409,3.68526 2.38548,3.91999 0.0137,0.0152 1.32309,-0.79143 2.90972,-1.79255 l 2.88478,-1.82022 0.0825,0.31088 c 0.40653,1.53148 0.82549,4.35442 0.92762,6.25034 0.24964,4.63432 -0.69856,7.94763 -2.90566,10.15335 -0.96985,0.96923 -2.32892,1.77298 -3.56252,2.10685 -0.70793,0.1916 -2.32121,0.24437 -2.96334,0.0969 z m 23.4645,-0.39602 c -2.23657,-0.5495 -4.21661,-2.16414 -5.36729,-4.37682 -0.68147,-1.31039 -1.1138,-2.79215 -1.38905,-4.76075 -0.14574,-1.04234 -0.14667,-4.96826 -0.001,-6.223 0.1803,-1.5582 0.36806,-2.79019 0.4364,-2.86353 0.0356,-0.0382 1.36704,0.63803 2.95868,1.50283 1.59165,0.8648 2.93958,1.57143 2.99541,1.57028 0.0882,-0.002 2.11903,-3.66991 2.1912,-3.95777 0.0164,-0.0653 -1.10318,-0.72128 -2.85171,-1.67088 -1.58326,-0.85985 -2.91676,-1.58077 -2.96333,-1.60205 -0.2197,-0.1004 2.55224,-2.43292 4.27567,-3.59787 2.61433,-1.76716 4.7333,-2.73658 6.87893,-3.14708 1.23814,-0.23689 3.03695,-0.19766 4.0854,0.0891 2.12437,0.58101 3.85908,1.89547 4.80902,3.64397 1.04532,1.92407 0.95001,4.40928 -0.23883,6.22771 -0.47612,0.72825 -1.57493,1.79477 -2.45352,2.3814 -0.4191,0.27983 -1.35869,0.83589 -2.08797,1.23568 -2.64938,1.4524 -3.10213,1.86397 -3.42342,3.11202 -0.15367,0.59693 -0.13862,1.74983 0.0536,4.10352 0.18092,2.21575 -0.0757,3.85252 -0.83648,5.33401 -0.2161,0.42085 -0.526,0.81488 -1.06901,1.35922 -0.64453,0.6461 -0.89109,0.82868 -1.56903,1.16188 -0.44238,0.21742 -1.05198,0.45293 -1.35466,0.52335 -0.77954,0.18137 -2.2438,0.15986 -3.07851,-0.0452 z m -12.1615,-17.718 c -0.99632,-0.2971 -1.65667,-0.69394 -2.41508,-1.45137 -1.11061,-1.10917 -1.64892,-2.38294 -1.64892,-3.90179 0,-2.60383 1.71892,-4.83646 4.23478,-5.50041 0.71772,-0.18941 1.98295,-0.19024 2.70789,-0.002 1.60764,0.41793 2.95921,1.50798 3.67977,2.96775 0.41667,0.84413 0.58086,1.55197 0.57943,2.49804 -0.002,1.56817 -0.50155,2.76203 -1.63235,3.90395 -0.58519,0.59095 -0.8581,0.79516 -1.44152,1.07866 -0.96598,0.4694 -1.55368,0.60632 -2.57895,0.60085 -0.62381,-0.003 -1.01905,-0.0549 -1.48505,-0.19389 z m -1.98966,-12.12488 c -5.03256,-1.85117 -8.84863,-4.39881 -10.62935,-7.09623 -1.90201,-2.88115 -2.00564,-6.35897 -0.26582,-8.92097 1.0063,-1.48184 2.83345,-2.51812 4.62566,-2.62345 1.86725,-0.10975 3.40049,0.44853 6.21674,2.26362 1.69744,1.094 2.53678,1.51768 3.16384,1.59703 1.07364,0.13587 1.84275,-0.16253 3.93902,-1.52828 2.83177,-1.84495 4.45481,-2.44286 6.33141,-2.33243 2.66573,0.15687 4.88049,2.06019 5.637,4.84435 0.26298,0.96785 0.2694,2.75039 0.0136,3.76767 -0.83229,3.30945 -3.44039,5.99044 -8.13984,8.36731 -1.71867,0.86926 -4.55944,2.04669 -4.93806,2.04669 -0.0384,0 -0.0698,-1.524 -0.0698,-3.38667 v -3.38666 h -2.32738 -2.32739 l -0.0221,3.41202 -0.0221,3.41201 z"
         id="path302" /><g
         id="g1438"
         transform="translate(-64.718654,-142.52464)"><path
           style="fill:#91b14a;fill-opacity:1;stroke-width:0.0846667"
           d="m 218.46372,506.33167 c -0.18627,-0.0188 -0.85302,-0.0935 -1.48167,-0.16608 -4.59768,-0.5307 -9.26349,-2.06697 -13.41966,-4.4186 -1.18771,-0.67203 -3.51861,-2.26032 -4.699,-3.20194 -1.47334,-1.17531 -4.36232,-4.06429 -5.53763,-5.53763 -0.94162,-1.18039 -2.52992,-3.51129 -3.20194,-4.699 -2.30739,-4.07799 -3.75032,-8.40166 -4.40502,-13.19944 -0.25632,-1.87839 -0.27634,-6.80048 -0.0352,-8.64456 0.35039,-2.6791 0.86856,-4.93886 1.66927,-7.27973 2.46017,-7.19232 7.04794,-13.33488 13.24614,-17.73525 9.25811,-6.57274 21.09631,-8.33603 31.877,-4.74807 8.36868,2.7852 15.42432,8.57625 19.85041,16.29257 1.98611,3.46253 3.45755,7.56469 4.14851,11.56548 0.37368,2.16368 0.49625,3.66931 0.49625,6.096 0,2.42669 -0.12257,3.93232 -0.49625,6.096 -1.9277,11.1617 -9.11934,20.79861 -19.34225,25.91893 -3.58131,1.79376 -7.19508,2.89565 -11.38613,3.47178 -1.03016,0.14162 -1.80995,0.17944 -4.10787,0.19924 -1.55998,0.0134 -2.98873,0.009 -3.175,-0.01 z m 6.05367,-5.16019 c 6.90334,-0.73825 13.34228,-3.81979 18.29376,-8.75501 1.38721,-1.38266 2.18163,-2.30282 3.24039,-3.75331 4.66073,-6.38515 6.67782,-14.39118 5.59251,-22.19732 -0.76478,-5.50078 -2.96728,-10.58968 -6.50493,-15.02975 -1.08336,-1.35973 -3.346,-3.62158 -4.72154,-4.71991 -4.60787,-3.67925 -10.00333,-5.92222 -15.85786,-6.59236 -1.54682,-0.17705 -4.88833,-0.19948 -6.30767,-0.0423 -5.23481,0.5796 -9.83274,2.23311 -14.06328,5.05744 -3.26197,2.17771 -6.08192,4.97694 -8.31742,8.25633 -0.95757,1.40472 -1.46525,2.27968 -2.24798,3.87434 -2.96454,6.03964 -3.82466,12.8844 -2.46047,19.58015 1.44113,7.07341 5.46977,13.52131 11.272,18.04102 1.75856,1.36985 3.44954,2.41239 5.59679,3.45058 5.09286,2.46239 10.78571,3.43969 16.4857,2.83013 z m -16.129,-7.01248 c -2.25406,-0.51756 -4.00267,-2.16046 -4.69509,-4.41125 -0.33118,-1.07654 -0.42617,-2.05504 -0.42739,-4.40266 -0.001,-2.43354 -0.0692,-3.06606 -0.40223,-3.74625 -0.39187,-0.80032 -0.9424,-1.20963 -2.89854,-2.15503 -3.07923,-1.4882 -3.6557,-1.84123 -4.66026,-2.85401 -1.33752,-1.34845 -1.946,-2.92369 -1.83376,-4.74731 0.2073,-3.36833 3.07855,-6.05773 6.96251,-6.52156 2.86156,-0.34173 6.60402,0.92486 10.69642,3.62005 1.01656,0.6695 2.86868,2.03665 3.04198,2.24547 0.0861,0.1038 -0.34233,0.40311 -2.7015,1.88712 -1.54213,0.97007 -2.82048,1.80701 -2.84076,1.85987 -0.0265,0.0691 2.17409,3.68526 2.38549,3.91999 0.0137,0.0152 1.32308,-0.79143 2.90971,-1.79255 l 2.88479,-1.82022 0.0825,0.31088 c 0.40654,1.53148 0.8255,4.35442 0.92763,6.25034 0.24964,4.63432 -0.69856,7.94763 -2.90567,10.15334 -0.96985,0.96924 -2.32892,1.77298 -3.56252,2.10685 -0.70793,0.19161 -2.32121,0.24437 -2.96333,0.0969 z m 23.46449,-0.39602 c -2.23657,-0.54949 -4.2166,-2.16413 -5.36729,-4.37681 -0.68147,-1.3104 -1.1138,-2.79216 -1.38904,-4.76075 -0.14574,-1.04234 -0.14667,-4.96826 -0.001,-6.223 0.18031,-1.5582 0.36806,-2.79019 0.4364,-2.86353 0.0356,-0.0383 1.36704,0.63803 2.95869,1.50283 1.59164,0.8648 2.93957,1.57143 2.9954,1.57028 0.0882,-0.002 2.11904,-3.66991 2.19121,-3.95777 0.0164,-0.0653 -1.10319,-0.72128 -2.85171,-1.67088 -1.58327,-0.85985 -2.91677,-1.58077 -2.96334,-1.60205 -0.2197,-0.1004 2.55224,-2.43292 4.27567,-3.59787 2.61433,-1.76716 4.73331,-2.73658 6.87893,-3.14708 1.23815,-0.23689 3.03695,-0.19766 4.0854,0.0891 2.12437,0.58102 3.85908,1.89547 4.80902,3.64397 1.04533,1.92408 0.95002,4.40929 -0.23883,6.22772 -0.47611,0.72825 -1.57493,1.79476 -2.45352,2.38139 -0.4191,0.27983 -1.35868,0.83589 -2.08796,1.23569 -2.64938,1.4524 -3.10213,1.86396 -3.42342,3.11202 -0.15368,0.59693 -0.13863,1.74982 0.0536,4.10351 0.18093,2.21575 -0.0758,3.85251 -0.83647,5.334 -0.21611,0.42086 -0.52601,0.81489 -1.06902,1.35923 -0.64452,0.6461 -0.89109,0.82868 -1.56902,1.16187 -0.44239,0.21743 -1.05199,0.45294 -1.35467,0.52336 -0.77953,0.18137 -2.2438,0.15985 -3.07851,-0.0452 z m -12.16149,-17.71799 c -0.99632,-0.2971 -1.65668,-0.69394 -2.41509,-1.45137 -1.11061,-1.10917 -1.64891,-2.38294 -1.64891,-3.90179 0,-2.60383 1.71891,-4.83646 4.23478,-5.50041 0.71772,-0.18941 1.98294,-0.19024 2.70788,-0.002 1.60764,0.41792 2.95922,1.50797 3.67977,2.96774 0.41668,0.84414 0.58086,1.55197 0.57944,2.49804 -0.002,1.56817 -0.50156,2.76204 -1.63235,3.90395 -0.58519,0.59095 -0.8581,0.79516 -1.44152,1.07866 -0.96599,0.4694 -1.55369,0.60633 -2.57896,0.60085 -0.6238,-0.003 -1.01905,-0.0549 -1.48504,-0.19389 z m -1.98967,-12.12488 c -5.03256,-1.85117 -8.84863,-4.39881 -10.62935,-7.09623 -1.90201,-2.88115 -2.00563,-6.35897 -0.26582,-8.92097 1.00631,-1.48184 2.83346,-2.51812 4.62567,-2.62345 1.86724,-0.10975 3.40049,0.44853 6.21674,2.26362 1.69743,1.094 2.53677,1.51768 3.16383,1.59704 1.07365,0.13586 1.84275,-0.16254 3.93902,-1.52829 2.83177,-1.84495 4.45481,-2.44286 6.33141,-2.33243 2.66574,0.15687 4.88049,2.06019 5.637,4.84435 0.26299,0.96785 0.2694,2.75039 0.0136,3.76767 -0.8323,3.30945 -3.4404,5.99044 -8.13984,8.36731 -1.71867,0.86926 -4.55945,2.04669 -4.93806,2.04669 -0.0384,0 -0.0698,-1.524 -0.0698,-3.38667 v -3.38666 h -2.32738 -2.32738 l -0.0221,3.41202 -0.0221,3.41201 z"
           id="path316"
           sodipodiNodetypes="ccssssssssssssssssccssssssscsssssssssscssssssssssscssssssssscsscsssssssssssssssssscssscscsscccssssssssscssscccccs" /><circle
           style="fill:none;fill-opacity:1;stroke:#3e4095;stroke-width:5.242;stroke-dasharray:none"
           id="path880"
           cx="221.24263"
           cy="470.61264"
           r="33.463596" /></g></g></g></svg>
