<?xml version="1.0" encoding="UTF-8" standalone="no"?>
<svg
   xmlns:dc="http://purl.org/dc/elements/1.1/"
   xmlns:cc="http://creativecommons.org/ns#"
   xmlns:rdf="http://www.w3.org/1999/02/22-rdf-syntax-ns#"
   xmlns:svg="http://www.w3.org/2000/svg"
   xmlns="http://www.w3.org/2000/svg"
   xmlns:sodipodi="http://sodipodi.sourceforge.net/DTD/sodipodi-0.dtd"
   xmlns:inkscape="http://www.inkscape.org/namespaces/inkscape"
   width="126.57259mm"
   height="126.57259mm"
   viewBox="0 0 126.57259 126.57259"
   version="1.1"
   id="svg303"
   inkscape:version="1.0.1 (3bc2e813f5, 2020-09-07)"
   sodipodi:docname="persona.svg">
  <defs
     id="defs297" />
  <sodipodi:namedview
     id="base"
     pagecolor="#ffffff"
     bordercolor="#666666"
     borderopacity="1.0"
     inkscape:pageopacity="0.0"
     inkscape:pageshadow="2"
     inkscape:zoom="0.35"
     inkscape:cx="-9.3791491"
     inkscape:cy="184.90657"
     inkscape:document-units="mm"
     inkscape:current-layer="layer1"
     inkscape:document-rotation="0"
     showgrid="false"
     inkscape:window-width="1258"
     inkscape:window-height="738"
     inkscape:window-x="26"
     inkscape:window-y="256"
     inkscape:window-maximized="0" />
  <metadata
     id="metadata300">
    <rdf:RDF>
      <cc:Work
         rdf:about="">
        <dc:format>image/svg+xml</dc:format>
        <dc:type
           rdf:resource="http://purl.org/dc/dcmitype/StillImage" />
        <dc:title></dc:title>
      </cc:Work>
    </rdf:RDF>
  </metadata>
  <g
     inkscape:label="Capa 1"
     inkscape:groupmode="layer"
     id="layer1"
     transform="translate(-108.3149,-99.243471)">
    <g
       id="g2246"
       transform="matrix(0.95614035,0,0,0.95614035,-458.48591,-178.88311)">
      <g
         id="g2163"
         transform="matrix(0.90476191,0,0,0.90476191,57.507843,34.532358)">
        <circle
           style="fill:#0e2e44;fill-opacity:1;stroke:none;stroke-width:0.985475;stroke-dashoffset:0.937323"
           id="path2113"
           cx="664.79626"
           cy="356.49341"
           r="73.156631" />
        <g
           id="g1963"
           transform="matrix(0.87518838,0,0,0.87518838,704.09899,35.86591)">
          <g
             id="g1873"
             transform="matrix(0.19106969,0,0,0.19106969,-93.821671,317.43867)"
             style="fill:#54c7d6;fill-opacity:1">
            <path
               clip-rule="evenodd"
               d="m 166.656,281.049 -66.581,20.53 C 81.356,307.332 69.968,320.97 64.01,337.207 l 39.51,101.363 c 165.576,42.665 272.076,51.105 216.387,-139.473 -0.058,-0.175 0.088,-0.38 0.117,-0.555 l -56.74,-17.493 z"
               fill="#3bc3a4"
               fill-rule="evenodd"
               id="path1871"
               style="fill:#54c7d6;fill-opacity:1" />
          </g>
          <g
             id="g1877"
             transform="matrix(0.19106969,0,0,0.19106969,-93.821671,317.43867)">
            <path
               clip-rule="evenodd"
               d="m 191.274,239.251 c -8.644,-3.212 -16.937,-7.797 -24.617,-13.375 v 55.173 6.483 c 0,43.395 96.63,43.395 96.63,0 v -6.483 -55.173 c -7.68,5.578 -15.974,10.163 -24.617,13.375 -8.585,3.183 -16.12,4.76 -23.683,4.76 -7.563,0 -15.128,-1.577 -23.713,-4.76 z"
               fill="#fed1a3"
               fill-rule="evenodd"
               id="path1875" />
          </g>
          <g
             id="g1881"
             transform="matrix(0.19106969,0,0,0.19106969,-93.821671,317.43867)">
            <path
               d="m 44.737,410.872 h -25.23 c -10.46,0 -18.969,-8.496 -18.969,-18.94 v -28.094 c 0,-10.444 8.509,-18.94 18.969,-18.94 h 25.23 c 4.268,0 7.726,3.459 7.726,7.726 0,4.267 -3.459,7.726 -7.726,7.726 h -25.23 c -1.905,0 -3.516,1.597 -3.516,3.487 v 28.094 c 0,1.89 1.611,3.487 3.516,3.487 h 25.23 c 4.268,0 7.726,3.459 7.726,7.726 0,4.267 -3.458,7.728 -7.726,7.728 z"
               fill="#beb9dd"
               id="path1879" />
          </g>
          <g
             id="g1885"
             transform="matrix(0.19106969,0,0,0.19106969,-93.821671,317.43867)">
            <path
               clip-rule="evenodd"
               d="m 120.4,150.483 h -17.726 c -8.235,0 -14.951,6.658 -14.951,14.893 v 8.294 c 0,16.003 15.915,24.676 32.297,24.822 h 3.446 c 10.133,-15.185 7.914,-32.298 -3.066,-48.009 z"
               fill="#ffbc85"
               fill-rule="evenodd"
               id="path1883" />
          </g>
          <g
             id="g1889"
             transform="matrix(0.19106969,0,0,0.19106969,-93.821671,317.43867)">
            <path
               clip-rule="evenodd"
               d="m 169.43,90.938 c -3.855,29.436 -38.459,31.13 -49.03,39.278 v 48.944 c 0,6.22 1.051,12.762 3.066,19.332 6.454,21.347 22.602,43.337 43.19,58.289 7.68,5.578 15.974,10.163 24.617,13.375 8.585,3.183 16.149,4.76 23.712,4.76 7.563,0 15.097,-1.577 23.683,-4.76 8.644,-3.212 16.937,-7.797 24.617,-13.375 20.587,-14.952 36.736,-36.942 43.19,-58.289 2.015,-6.571 3.095,-13.112 3.095,-19.332 V 130.216 C 283.056,74.468 209.233,120.929 169.43,90.938 Z"
               fill="#ffe5c1"
               fill-rule="evenodd"
               id="path1887" />
          </g>
          <g
             id="g1893"
             transform="matrix(0.19106969,0,0,0.19106969,-93.821671,317.43867)">
            <path
               clip-rule="evenodd"
               d="m 306.476,198.492 h 3.446 c 16.382,-0.146 32.298,-8.819 32.298,-24.822 v -8.294 c 0,-8.235 -6.716,-14.893 -14.951,-14.893 h -17.696 c -16.851,12.44 -22.779,28.239 -3.097,48.009 z"
               fill="#ffbc85"
               fill-rule="evenodd"
               id="path1891" />
          </g>
          <g
             id="g1897"
             transform="matrix(0.19106969,0,0,0.19106969,-93.821671,317.43867)">
            <path
               clip-rule="evenodd"
               d="M 123.058,419.062 V 345.47 c 0,-4.556 -3.709,-8.264 -8.264,-8.264 H 64.011 53.002 c -4.556,0 -8.264,3.709 -8.264,8.264 v 7.155 50.521 15.916 c 0,10.717 8.79,19.508 19.536,19.508 l 19.624,14.711 19.624,-14.711 c 10.746,-10e-4 19.536,-8.791 19.536,-19.508 z"
               fill="#dddaec"
               fill-rule="evenodd"
               id="path1895" />
          </g>
          <g
             id="g1901"
             transform="matrix(0.19106969,0,0,0.19106969,-93.821671,317.43867)"
             style="fill:#389ca9;fill-opacity:1">
            <path
               clip-rule="evenodd"
               d="m 263.286,287.532 c 0,10.104 -5.256,17.872 -13.316,23.275 6.541,20.822 10.162,43.775 10.162,67.897 0,8.294 -0.438,16.47 -1.256,24.443 h 39.686 l 21.347,-104.05 c 0.029,-0.175 0.088,-0.38 0.117,-0.555 l -56.74,-17.493 z"
               fill="#00a887"
               fill-rule="evenodd"
               id="path1899"
               style="fill:#389ca9;fill-opacity:1" />
          </g>
          <g
             id="g1905"
             transform="matrix(0.19106969,0,0,0.19106969,-93.821671,317.43867)">
            <path
               clip-rule="evenodd"
               d="m 97.652,345.47 v 73.591 c 0,10.717 -8.79,19.508 -19.536,19.508 h 25.406 c 10.746,0 19.536,-8.79 19.536,-19.508 V 345.47 c 0,-4.556 -3.709,-8.264 -8.264,-8.264 H 89.388 c 4.555,0 8.264,3.709 8.264,8.264 z"
               fill="#beb9dd"
               fill-rule="evenodd"
               id="path1903" />
          </g>
          <g
             id="g1909"
             transform="matrix(0.19106969,0,0,0.19106969,-93.821671,317.43867)">
            <path
               clip-rule="evenodd"
               d="M 309.571,150.483 C 301.949,134.451 290.444,126.887 276.923,123.5 v 42.169 c 0,6.249 -2.628,12.762 -4.614,19.361 -6.483,21.318 -22.632,43.337 -43.219,58.289 -7.68,5.549 -15.974,10.133 -24.617,13.346 -8.556,3.183 -16.12,4.76 -23.683,4.76 -2.716,0 -5.402,-0.204 -8.177,-0.613 5.957,3.767 12.206,6.95 18.66,9.345 8.585,3.183 16.149,4.76 23.712,4.76 7.563,0 15.097,-1.577 23.683,-4.76 8.644,-3.212 16.937,-7.797 24.617,-13.375 20.587,-14.952 36.736,-36.942 43.19,-58.289 2.015,-6.571 3.095,-13.112 3.095,-19.332 v -28.678 z"
               fill="#fed1a3"
               fill-rule="evenodd"
               id="path1907" />
          </g>
          <g
             id="g1913"
             transform="matrix(0.19106969,0,0,0.19106969,-93.821671,317.43867)">
            <path
               clip-rule="evenodd"
               d="m 120.4,150.483 c 10.571,-8.148 45.176,-9.841 49.03,-39.249 5.928,-14.368 5.432,-52.653 -8.936,-68.598 -34.867,6.133 -49.848,33.087 -45.205,68.656 z"
               fill="#2b4d66"
               fill-rule="evenodd"
               id="path1911" />
          </g>
          <g
             id="g1917"
             transform="matrix(0.19106969,0,0,0.19106969,-93.821671,317.43867)">
            <path
               clip-rule="evenodd"
               d="m 169.43,111.234 c 39.802,29.991 113.625,-16.5 140.141,39.249 5.198,-39.95 6.366,-78.76 -29.26,-109.044 C 247.4,13.463 176.264,12.441 160.495,42.637 c -7.038,16.499 -6.717,54.784 8.935,68.597 z"
               fill="#375e7d"
               fill-rule="evenodd"
               id="path1915" />
          </g>
          <g
             id="g1921"
             transform="matrix(0.19106969,0,0,0.19106969,-93.821671,317.43867)">
            <path
               clip-rule="evenodd"
               d="m 246.144,27.977 c 31.567,26.837 34.225,60.421 30.779,95.523 13.521,3.388 25.026,10.951 32.648,26.983 5.198,-39.95 6.366,-78.76 -29.26,-109.044 -10.717,-9.111 -25.493,-15.361 -41.087,-18.602 2.452,1.606 4.759,3.3 6.92,5.14 z"
               fill="#2b4d66"
               fill-rule="evenodd"
               id="path1919" />
          </g>
          <g
             id="g1925"
             transform="matrix(0.19106969,0,0,0.19106969,-93.821671,317.43867)">
            <path
               clip-rule="evenodd"
               d="m 166.656,277.428 c 7.68,5.578 15.974,10.163 24.617,13.375 8.585,3.183 16.149,4.76 23.712,4.76 7.563,0 15.097,-1.577 23.683,-4.76 14.163,-5.256 11.301,-8.352 11.301,9.929 v 10.075 c 8.06,-5.403 13.316,-13.171 13.316,-23.275 v -6.483 -24.268 c -7.68,5.578 -15.974,10.163 -24.617,13.375 -8.585,3.183 -16.12,4.76 -23.683,4.76 -7.563,0 -15.127,-1.577 -23.712,-4.76 -6.454,-2.395 -12.703,-5.578 -18.66,-9.345 -2.015,-1.256 -4.001,-2.628 -5.957,-4.03 z"
               fill="#ffbc85"
               fill-rule="evenodd"
               id="path1923" />
          </g>
          <g
             id="g1929"
             transform="matrix(0.19106969,0,0,0.19106969,-93.821671,317.43867)">
            <path
               d="m 256.366,181.542 c -4.268,0 -7.726,-3.459 -7.726,-7.726 v -7.388 c 0,-4.267 3.459,-7.726 7.726,-7.726 4.267,0 7.726,3.459 7.726,7.726 v 7.388 c 0,4.267 -3.459,7.726 -7.726,7.726 z"
               fill="#2b4d66"
               id="path1927" />
          </g>
          <g
             id="g1933"
             transform="matrix(0.19106969,0,0,0.19106969,-93.821671,317.43867)">
            <path
               d="m 176.176,181.542 c -4.268,0 -7.726,-3.459 -7.726,-7.726 v -7.388 c 0,-4.267 3.459,-7.726 7.726,-7.726 4.267,0 7.726,3.459 7.726,7.726 v 7.388 c 0.001,4.267 -3.458,7.726 -7.726,7.726 z"
               fill="#2b4d66"
               id="path1931" />
          </g>
          <g
             id="g1937"
             transform="matrix(0.19106969,0,0,0.19106969,-93.821671,317.43867)">
            <path
               d="m 216.266,238.598 c -7.829,0 -15.19,-3.051 -20.731,-8.594 -3.017,-3.017 -3.017,-7.909 0.001,-10.927 3.017,-3.017 7.909,-3.016 10.927,0.001 2.622,2.623 6.104,4.066 9.805,4.066 h 0.012 c 3.691,-0.003 7.158,-1.444 9.763,-4.057 3.01,-3.023 7.902,-3.031 10.927,-0.019 3.023,3.012 3.031,7.904 0.019,10.927 -5.521,5.541 -12.871,8.596 -20.696,8.602 -0.01,0 -0.019,0.001 -0.027,0.001 z"
               fill="#ffbc85"
               id="path1935" />
          </g>
          <g
             id="g1941"
             transform="matrix(0.19106969,0,0,0.19106969,-93.821671,317.43867)">
            <path
               clip-rule="evenodd"
               d="m 228.302,410.33 v 10.542 c 0,9.725 7.972,17.697 17.696,17.697 l 25.97,11.105 19.323,-11.105 13.871,-17.697 -6.6,-17.726 h -63.106 c -3.942,0 -7.154,3.241 -7.154,7.184 z"
               fill="#a7a2d3"
               fill-rule="evenodd"
               id="path1939" />
          </g>
          <g
             id="g1945"
             transform="matrix(0.19106969,0,0,0.19106969,-93.821671,317.43867)">
            <path
               clip-rule="evenodd"
               d="m 319.909,299.096 -21.347,104.05 -7.271,35.423 75.454,20.892 117.133,-20.892 27.684,-134.888 c 0.263,-1.373 0.409,-2.687 0.438,-4.001 v -0.467 c -0.117,-10.367 -8.177,-18.164 -16.236,-18.164 H 341.431 c -11.506,0 -19.215,8.031 -21.405,17.493 z"
               fill="#dddaec"
               fill-rule="evenodd"
               id="path1943" />
          </g>
          <g
             id="g1949"
             transform="matrix(0.19106969,0,0,0.19106969,-93.821671,317.43867)">
            <path
               clip-rule="evenodd"
               d="m 449.245,281.049 c 1.548,10.863 2.365,22.107 2.365,33.612 0,48.652 -14.718,92.573 -38.401,123.908 h 70.669 l 27.684,-134.888 c 0.263,-1.373 0.409,-2.687 0.438,-4.001 v -0.467 c -0.117,-10.367 -8.177,-18.164 -16.236,-18.164 z"
               fill="#beb9dd"
               fill-rule="evenodd"
               id="path1947" />
          </g>
          <g
             id="g1953"
             transform="matrix(0.19106969,0,0,0.19106969,-93.821671,317.43867)"
             style="fill:#54c7d6;fill-opacity:1">
            <path
               clip-rule="evenodd"
               d="m 409.355,344.039 c -10.425,0 -19.332,8.235 -19.887,18.369 -0.555,10.133 7.447,18.369 17.901,18.369 10.425,0 19.332,-8.235 19.857,-18.369 0.555,-10.133 -7.446,-18.369 -17.871,-18.369 z"
               fill="#3bc3a4"
               fill-rule="evenodd"
               id="path1951"
               style="fill:#54c7d6;fill-opacity:1" />
          </g>
          <g
             id="g1957"
             transform="matrix(0.19106969,0,0,0.19106969,-93.821671,317.43867)">
            <path
               clip-rule="evenodd"
               d="M 507.298,438.569 H 4.702 C 2.103,438.569 0,440.701 0,443.3 v 43.775 c 0,2.599 2.103,4.702 4.702,4.702 h 502.597 c 2.57,0 4.702,-2.103 4.702,-4.702 V 443.3 c -10e-4,-2.599 -2.133,-4.731 -4.703,-4.731 z"
               fill="#935d38"
               fill-rule="evenodd"
               id="path1955" />
          </g>
          <g
             id="g1961"
             transform="matrix(0.19106969,0,0,0.19106969,-93.821671,317.43867)">
            <path
               clip-rule="evenodd"
               d="m 459.582,443.3 v 43.775 c 0,2.599 -2.103,4.702 -4.702,4.702 h 52.418 c 2.57,0 4.702,-2.103 4.702,-4.702 V 443.3 c 0,-2.599 -2.132,-4.731 -4.702,-4.731 h -23.42 -28.939 c 2.57,0.029 4.643,2.161 4.643,4.731 z"
               fill="#7f4d2a"
               fill-rule="evenodd"
               id="path1959" />
          </g>
        </g>
      </g>
      <ellipse
         style="fill:#50c6dd;fill-opacity:1;stroke:none;stroke-width:1.4;stroke-dashoffset:0.937323"
         id="path2182"
         cx="706.01947"
         cy="308.88354"
         rx="15.095811"
         ry="14.515203" />
    </g>
  </g>
</svg>
